<svg width="61" height="60" viewBox="0 0 61 60" fill="none" xmlns="http://www.w3.org/2000/svg">
<g clip-path="url(#clip0_374_135)">
<path d="M33.5469 14.0625H34.7188V19.9219C34.7188 20.5691 35.2435 21.0938 35.8906 21.0938H42.9219C43.569 21.0938 44.0938 20.5691 44.0938 19.9219V17.5781C44.0938 16.932 44.6195 16.4062 45.2656 16.4062C45.9118 16.4062 46.4375 16.932 46.4375 17.5781V19.9219C46.4375 20.5691 46.9623 21.0938 47.6094 21.0938H54.6406C55.2877 21.0938 55.8125 20.5691 55.8125 19.9219V14.0625H56.9844C58.9229 14.0625 60.5 12.4854 60.5 10.5469C60.5 8.60836 58.9229 7.03125 56.9844 7.03125H55.8125V1.17188C55.8125 0.524648 55.2877 0 54.6406 0H47.6094C46.9623 0 46.4375 0.524648 46.4375 1.17188V3.51562C46.4375 4.1618 45.9118 4.6875 45.2656 4.6875C44.6195 4.6875 44.0938 4.1618 44.0938 3.51562V1.17188C44.0938 0.524648 43.569 0 42.9219 0H35.8906C35.2435 0 34.7188 0.524648 34.7188 1.17188V7.03125H33.5469C31.6084 7.03125 30.0312 8.60836 30.0312 10.5469C30.0312 12.4854 31.6084 14.0625 33.5469 14.0625ZM33.5469 9.375H35.8906C36.5377 9.375 37.0625 8.85035 37.0625 8.20312V2.34375H41.75V3.51562C41.75 5.45414 43.3271 7.03125 45.2656 7.03125C47.2041 7.03125 48.7812 5.45414 48.7812 3.51562V2.34375H53.4688V8.20312C53.4688 8.85035 53.9935 9.375 54.6406 9.375H56.9844C57.6305 9.375 58.1562 9.9007 58.1562 10.5469C58.1562 11.193 57.6305 11.7188 56.9844 11.7188H54.6406C53.9935 11.7188 53.4688 12.2434 53.4688 12.8906V18.75H48.7812V17.5781C48.7812 15.6396 47.2041 14.0625 45.2656 14.0625C43.3271 14.0625 41.75 15.6396 41.75 17.5781V18.75H37.0625V12.8906C37.0625 12.2434 36.5377 11.7188 35.8906 11.7188H33.5469C32.9007 11.7188 32.375 11.193 32.375 10.5469C32.375 9.9007 32.9007 9.375 33.5469 9.375Z" fill="white"/>
<path d="M51.7109 42.4219H51.6726C52.7885 41.1769 53.4688 39.5338 53.4688 37.7344V33.5955C54.9447 32.2709 55.8125 30.3567 55.8125 28.3594V26.0156C55.8125 25.3684 55.2877 24.8438 54.6406 24.8438H44.0938C41.5091 24.8438 39.4062 26.9466 39.4062 29.5312V37.7344C39.4062 39.5338 40.0865 41.1769 41.2024 42.4219H41.1641C39.0801 42.4219 37.1645 43.1523 35.6562 44.3687V34.2188C35.6562 33.5715 35.1315 33.0469 34.4844 33.0469H25.1094V17.8125C25.1094 17.1653 24.5846 16.6406 23.9375 16.6406H18.0781C17.431 16.6406 16.9062 17.1653 16.9062 17.8125C16.9062 18.4597 17.431 18.9844 18.0781 18.9844H22.7656V57.6562H17.4922V50.625C17.4922 49.9778 16.9674 49.4531 16.3203 49.4531H9.28906C8.64195 49.4531 8.11719 49.9778 8.11719 50.625V57.6562H2.84375V18.9844H7.53125C8.17836 18.9844 8.70312 18.4597 8.70312 17.8125C8.70312 17.1653 8.17836 16.6406 7.53125 16.6406H1.67188C1.02477 16.6406 0.5 17.1653 0.5 17.8125V58.8281C0.5 59.4754 1.02477 60 1.67188 60H9.28906H59.3281C59.9752 60 60.5 59.4754 60.5 58.8281V51.2109C60.5 46.3646 56.5572 42.4219 51.7109 42.4219ZM15.1484 57.6562H10.4609V51.7969H15.1484V57.6562ZM33.3125 37.7344H28.625C27.9779 37.7344 27.4531 38.259 27.4531 38.9062C27.4531 39.5535 27.9779 40.0781 28.625 40.0781H33.3125V42.4219H28.625C27.9779 42.4219 27.4531 42.9465 27.4531 43.5938C27.4531 44.241 27.9779 44.7656 28.625 44.7656H33.3125V47.1094H28.625C27.9779 47.1094 27.4531 47.634 27.4531 48.2812C27.4531 48.9285 27.9779 49.4531 28.625 49.4531H32.5518C32.4361 50.0213 32.375 50.6091 32.375 51.2109V57.6562H25.1094V35.3906H33.3125V37.7344ZM41.75 29.5312C41.75 28.2389 42.8014 27.1875 44.0938 27.1875H53.4688V28.3594C53.4688 29.7034 52.8795 30.9912 51.8786 31.875H50.9239C49.0995 31.875 47.3843 31.1646 46.0943 29.8745C45.7377 29.518 45.1929 29.4295 44.7416 29.655L41.75 31.1508V29.5312ZM41.75 33.7711L45.0713 32.1104C46.7135 33.4757 48.7617 34.2188 50.9239 34.2188H51.125V37.7344C51.125 40.3191 49.0222 42.4219 46.4375 42.4219C43.8528 42.4219 41.75 40.3191 41.75 37.7344V33.7711ZM47.8662 44.7656L47.2803 47.1094H45.5946L45.0086 44.7656H47.8662ZM41.9291 57.6562H34.7188V51.2109C34.7188 47.657 37.6101 44.7656 41.1641 44.7656H42.5929L43.4838 48.3288L41.9291 57.6562ZM44.3053 57.6562L45.6725 49.4531H47.2026L48.5698 57.6562H44.3053ZM58.1562 57.6562H50.9459L49.3913 48.3288L50.2821 44.7656H51.7109C55.2649 44.7656 58.1562 47.657 58.1562 51.2109V57.6562Z" fill="white"/>
<path d="M19.25 43.5938H6.35938C5.71227 43.5938 5.1875 44.1184 5.1875 44.7656C5.1875 45.4129 5.71227 45.9375 6.35938 45.9375H19.25C19.8971 45.9375 20.4219 45.4129 20.4219 44.7656C20.4219 44.1184 19.8971 43.5938 19.25 43.5938Z" fill="white"/>
<path d="M19.25 38.9062H6.35938C5.71227 38.9062 5.1875 39.4309 5.1875 40.0781C5.1875 40.7254 5.71227 41.25 6.35938 41.25H19.25C19.8971 41.25 20.4219 40.7254 20.4219 40.0781C20.4219 39.4309 19.8971 38.9062 19.25 38.9062Z" fill="white"/>
<path d="M19.25 34.2188H6.35938C5.71227 34.2188 5.1875 34.7434 5.1875 35.3906C5.1875 36.0379 5.71227 36.5625 6.35938 36.5625H19.25C19.8971 36.5625 20.4219 36.0379 20.4219 35.3906C20.4219 34.7434 19.8971 34.2188 19.25 34.2188Z" fill="white"/>
<path d="M19.25 29.5312H6.35938C5.71227 29.5312 5.1875 30.0559 5.1875 30.7031C5.1875 31.3504 5.71227 31.875 6.35938 31.875H19.25C19.8971 31.875 20.4219 31.3504 20.4219 30.7031C20.4219 30.0559 19.8971 29.5312 19.25 29.5312Z" fill="white"/>
<path d="M19.25 24.8438H6.35938C5.71227 24.8438 5.1875 25.3684 5.1875 26.0156C5.1875 26.6629 5.71227 27.1875 6.35938 27.1875H19.25C19.8971 27.1875 20.4219 26.6629 20.4219 26.0156C20.4219 25.3684 19.8971 24.8438 19.25 24.8438Z" fill="white"/>
<path d="M12.8047 18.9844C13.4519 18.9844 13.9766 18.4597 13.9766 17.8125C13.9766 17.1653 13.4519 16.6406 12.8047 16.6406C12.1575 16.6406 11.6328 17.1653 11.6328 17.8125C11.6328 18.4597 12.1575 18.9844 12.8047 18.9844Z" fill="white"/>
</g>
<defs>
<clipPath id="clip0_374_135">
<rect width="60" height="60" fill="white" transform="translate(0.5)"/>
</clipPath>
</defs>
</svg>
