<svg width="61" height="60" viewBox="0 0 61 60" fill="none" xmlns="http://www.w3.org/2000/svg">
<g clip-path="url(#clip0_374_31)">
<path d="M51.1125 2.34375C51.4206 2.34375 51.7227 2.21832 51.9406 2.00043C52.159 1.78253 52.2844 1.47995 52.2844 1.17188C52.2844 0.8638 52.159 0.561218 51.9406 0.343323C51.7227 0.125427 51.4206 0 51.1125 0C50.804 0 50.5019 0.125427 50.284 0.343323C50.0661 0.561218 49.9407 0.8638 49.9407 1.17188C49.9407 1.47995 50.0656 1.78253 50.284 2.00043C50.5019 2.21832 50.8045 2.34375 51.1125 2.34375Z" fill="white"/>
<path d="M60.1553 8.55771C59.6975 8.1004 58.9555 8.1004 58.4977 8.55771L48.6929 18.3625C48.4727 18.5827 48.3491 18.8817 48.3496 19.1929L48.3546 22.4444C48.3569 24.2929 47.8145 26.0814 46.7845 27.6167L43.5746 32.4035C43.4231 32.6297 43.192 32.7816 42.9246 32.8315C42.6573 32.8814 42.3872 32.8233 42.1638 32.6672C42.1217 32.6379 42.0782 32.6123 42.0338 32.5894V30.3857C42.0338 30.2507 42.0251 30.1175 42.0091 29.9861L43.4149 28.5803C43.8727 28.1225 43.8727 27.3805 43.4149 26.9227C42.9576 26.4654 42.2155 26.4654 41.7578 26.9227L40.8368 27.8438C40.265 27.37 39.5317 27.0843 38.7324 27.0843C38.7045 27.0843 38.677 27.0857 38.6491 27.0866L32.6529 21.0899C33.6013 21.0006 34.5041 20.5113 35.0863 19.6791C35.6068 18.9361 35.8014 18.0357 35.6352 17.144C35.4686 16.2523 34.9618 15.4828 34.2083 14.9778L33.231 14.3223C34.8895 12.9321 37.019 12.1461 39.1916 12.1461H39.2048L41.306 12.1493H41.3078C41.6186 12.1493 41.9166 12.0257 42.1364 11.806L48.8421 5.10022C49.2994 4.64291 49.2994 3.90088 48.8421 3.44312C48.3844 2.98581 47.6428 2.98535 47.1846 3.44312L40.823 9.80466L39.208 9.80237C39.2025 9.80237 39.1971 9.80237 39.1916 9.80237C36.2454 9.80237 33.3596 10.9541 31.2196 12.9733L29.4211 11.7675C27.4975 10.4776 25.2604 9.80145 22.9405 9.80054L20.1751 9.80466L10.7145 0.344055C10.2568 -0.113708 9.5152 -0.113708 9.05698 0.344055C8.59967 0.801361 8.59967 1.5434 9.05698 2.00116L18.8618 11.806C19.082 12.0257 19.38 12.1493 19.6904 12.1493H19.6922L22.9437 12.1447H22.957C24.8008 12.1447 26.5843 12.6877 28.116 13.7144L32.9028 16.9247C33.1289 17.0762 33.2809 17.3069 33.3308 17.5747C33.3807 17.8421 33.3226 18.1122 33.1665 18.3355C32.8639 18.7672 32.2743 18.8917 31.8225 18.618L29.7538 17.3642C29.1011 16.9677 28.2853 17.117 27.8143 17.7171C27.3433 18.3177 27.3932 19.1453 27.9329 19.6846L31.2626 23.0143C30.9372 22.9072 30.5902 22.8482 30.2295 22.8482C28.7903 22.8482 27.5644 23.7738 27.113 25.0605C26.7587 24.9305 26.3765 24.8591 25.9778 24.8591C24.1572 24.8591 22.6759 26.3405 22.6759 28.161V34.7775C22.3916 34.5422 22.0689 34.3545 21.7228 34.2227C21.7201 34.2204 21.7183 34.2172 21.7155 34.2149L15.3586 27.8579C13.6058 26.1052 12.6422 23.7738 12.6454 21.2945L12.6486 19.1934C12.649 18.8817 12.5255 18.5832 12.3053 18.363L2.50043 8.55771C2.04266 8.1004 1.30109 8.1004 0.843323 8.55771C0.385559 9.01547 0.385559 9.75751 0.843323 10.2153L10.3039 19.6759L10.3016 21.2909C10.2975 24.3977 11.5046 27.3182 13.7014 29.515L18.7227 34.5363C18.3542 34.7738 18.0328 35.0851 17.7769 35.4586C17.2642 36.2071 17.0784 37.1093 17.2542 37.9992L18.3693 43.654C18.8174 45.9268 19.9211 47.9922 21.5612 49.6278L23.5191 51.5802V58.8279C23.5191 59.4752 24.0437 59.9998 24.691 59.9998C25.3383 59.9998 25.8629 59.4752 25.8629 58.8279V51.0936C25.8629 50.7823 25.7388 50.4838 25.5186 50.2636L23.2161 47.968C21.9073 46.6629 21.0261 45.0145 20.6691 43.2008L19.5535 37.5461C19.5009 37.2787 19.5567 37.0082 19.7105 36.7834C19.8643 36.5591 20.0969 36.4094 20.3647 36.3623C20.8838 36.2707 21.3896 36.6003 21.515 37.1121L22.0913 39.4622C22.2731 40.2034 22.9542 40.6753 23.7123 40.5833C24.4699 40.4922 25.0197 39.8715 25.0197 39.1084V28.1605C25.0197 27.6323 25.4495 27.2024 25.9773 27.2024C26.4666 27.2024 26.8708 27.5714 26.9276 28.0456V33.7745C26.9276 33.818 26.9304 33.8615 26.9349 33.9041V34.5321C26.9349 35.179 27.46 35.704 28.1068 35.704C28.7541 35.704 29.2787 35.179 29.2787 34.5321V28.1601C29.2787 28.0887 29.2759 28.0182 29.2714 27.9481V26.1491C29.2714 25.6208 29.7012 25.191 30.229 25.191C30.7573 25.191 31.1871 25.6208 31.1871 26.1491V27.9495C31.1825 28.0191 31.1793 28.0896 31.1793 28.1601V33.7741C31.1793 33.818 31.1825 33.8606 31.1871 33.9032V34.5321C31.1871 35.179 31.7117 35.704 32.359 35.704C33.0058 35.704 33.5309 35.179 33.5309 34.5321V28.0461C33.5872 27.5718 33.9914 27.2024 34.4807 27.2024C35.009 27.2024 35.4388 27.6318 35.4388 28.1601V30.1747C35.4342 30.2447 35.431 30.3148 35.431 30.3853V33.7741C35.431 33.818 35.4342 33.8606 35.4388 33.9032V34.5321C35.4388 35.179 35.9634 35.704 36.6107 35.704C37.2575 35.704 37.7826 35.179 37.7826 34.5321V30.2713C37.8389 29.797 38.2431 29.4276 38.7324 29.4276C39.2607 29.4276 39.6901 29.8575 39.6901 30.3853V42.2203C39.6901 44.6995 38.7233 47.0291 36.9677 48.7796L35.48 50.2636C35.2594 50.4834 35.1353 50.7818 35.1353 51.0931V54.4449C35.1353 55.0917 35.6604 55.6167 36.3072 55.6167C36.9545 55.6167 37.4791 55.0917 37.4791 54.4449V51.5797L38.623 50.4394C40.8226 48.2458 42.0343 45.3271 42.0343 42.2203V35.1172C42.2627 35.1666 42.4962 35.1931 42.7319 35.1931C42.9388 35.1931 43.1471 35.1744 43.3549 35.1355C44.2466 34.9688 45.0161 34.4621 45.5215 33.7086L48.7314 28.9218C50.0213 26.9978 50.7016 24.7566 50.6984 22.4408L50.6942 19.6754L60.1553 10.2148C60.6131 9.75751 60.6131 9.01547 60.1553 8.55771Z" fill="white"/>
<path d="M36.3071 57.6562C35.9986 57.6562 35.6965 57.7803 35.4786 57.9996C35.2607 58.2166 35.1353 58.5187 35.1353 58.8281C35.1353 59.1362 35.2607 59.4388 35.4786 59.6567C35.6978 59.8746 35.9986 60 36.3071 60C36.6166 60 36.9178 59.8746 37.1357 59.6567C37.3545 59.4388 37.479 59.1362 37.479 58.8281C37.479 58.5187 37.3545 58.2175 37.1357 57.9996C36.9178 57.7803 36.6166 57.6562 36.3071 57.6562Z" fill="white"/>
<path d="M52.999 54.0898C52.3522 54.0898 51.8271 54.6144 51.8271 55.2617V56.7183C51.8271 57.3656 52.3522 57.8902 52.999 57.8902C53.6463 57.8902 54.1709 57.3656 54.1709 56.7183V55.2617C54.1709 54.6144 53.6463 54.0898 52.999 54.0898Z" fill="white"/>
<path d="M52.999 47.1089C52.3522 47.1089 51.8271 47.6339 51.8271 48.2808V49.7374C51.8271 50.3846 52.3522 50.9092 52.999 50.9092C53.6463 50.9092 54.1709 50.3846 54.1709 49.7374V48.2808C54.1709 47.6339 53.6463 47.1089 52.999 47.1089Z" fill="white"/>
<path d="M50.2369 51.3276H48.7803C48.1335 51.3276 47.6084 51.8527 47.6084 52.4995C47.6084 53.1468 48.1335 53.6714 48.7803 53.6714H50.2369C50.8842 53.6714 51.4088 53.1468 51.4088 52.4995C51.4088 51.8527 50.8842 51.3276 50.2369 51.3276Z" fill="white"/>
<path d="M57.2178 51.3276H55.7612C55.1144 51.3276 54.5894 51.8527 54.5894 52.4995C54.5894 53.1468 55.1144 53.6714 55.7612 53.6714H57.2178C57.8651 53.6714 58.3897 53.1468 58.3897 52.4995C58.3897 51.8527 57.8651 51.3276 57.2178 51.3276Z" fill="white"/>
<path d="M5.89062 35.7935C5.2438 35.7935 4.71875 36.3185 4.71875 36.9653V38.4224C4.71875 39.0692 5.2438 39.5943 5.89062 39.5943C6.5379 39.5943 7.0625 39.0692 7.0625 38.4224V36.9653C7.0625 36.3185 6.5379 35.7935 5.89062 35.7935Z" fill="white"/>
<path d="M5.89062 28.813C5.2438 28.813 4.71875 29.3376 4.71875 29.9849V31.4415C4.71875 32.0883 5.2438 32.6133 5.89062 32.6133C6.5379 32.6133 7.0625 32.0883 7.0625 31.4415V29.9849C7.0625 29.3376 6.5379 28.813 5.89062 28.813Z" fill="white"/>
<path d="M3.12848 33.0317H1.67188C1.02505 33.0317 0.5 33.5563 0.5 34.2036C0.5 34.8504 1.02505 35.3755 1.67188 35.3755H3.12848C3.77576 35.3755 4.30035 34.8504 4.30035 34.2036C4.30035 33.5563 3.77576 33.0317 3.12848 33.0317Z" fill="white"/>
<path d="M10.1094 33.0317H8.65283C8.00555 33.0317 7.48096 33.5563 7.48096 34.2036C7.48096 34.8504 8.00555 35.3755 8.65283 35.3755H10.1094C10.7567 35.3755 11.2813 34.8504 11.2813 34.2036C11.2813 33.5563 10.7567 33.0317 10.1094 33.0317Z" fill="white"/>
</g>
<defs>
<clipPath id="clip0_374_31">
<rect width="60" height="60" fill="white" transform="translate(0.5)"/>
</clipPath>
</defs>
</svg>
