<svg width="61" height="60" viewBox="0 0 61 60" fill="none" xmlns="http://www.w3.org/2000/svg">
<g clip-path="url(#clip0_374_220)">
<path d="M18.1953 33.9844H42.8047C43.4518 33.9844 43.9766 33.4597 43.9766 32.8125V28.125C43.9766 26.2133 43.3193 24.4522 42.2188 23.0561V11.7188C42.2188 5.25703 36.9618 0 30.5 0C24.0382 0 18.7812 5.25703 18.7812 11.7188V23.0561C17.6807 24.4523 17.0234 26.2134 17.0234 28.125V32.8125C17.0234 33.4597 17.5482 33.9844 18.1953 33.9844ZM32.3507 22.2656L30.5 24.9096L28.6493 22.2656H32.3507ZM25.8125 15.2344V11.2711L29.1338 9.61043C30.776 10.9757 32.8242 11.7188 34.9864 11.7188H35.1875V15.2344C35.1875 17.8191 33.0847 19.9219 30.5 19.9219C27.9153 19.9219 25.8125 17.8191 25.8125 15.2344ZM41.6328 28.125V31.6406H31.6719V27.3226L35.2118 22.2656H35.7734C39.0043 22.2656 41.6328 24.8941 41.6328 28.125ZM21.125 11.7188C21.125 6.54938 25.3306 2.34375 30.5 2.34375C35.6694 2.34375 39.875 6.54938 39.875 11.7188V21.0227C38.6677 20.3228 37.2665 19.9219 35.7734 19.9219H35.7365C36.852 18.677 37.5312 17.0336 37.5312 15.2344V10.5469C37.5312 9.89965 37.0065 9.375 36.3594 9.375H34.9864C33.162 9.375 31.4468 8.66461 30.1568 7.37449C29.8 7.01801 29.2554 6.92953 28.8041 7.155L24.1166 9.49875C23.7195 9.69727 23.4688 10.103 23.4688 10.5469V15.2344C23.4688 17.0336 24.148 18.677 25.2635 19.9219H25.2266C23.7335 19.9219 22.3323 20.3229 21.125 21.0227V11.7188ZM19.3672 28.125C19.3672 24.8941 21.9957 22.2656 25.2266 22.2656H25.7882L29.3281 27.3226V31.6406H19.3672V28.125Z" fill="white"/>
<path d="M56.3984 36.5625H35.7734C35.1262 36.5625 34.6016 37.0871 34.6016 37.7344C34.6016 38.3816 35.1262 38.9062 35.7734 38.9062H56.3984C57.3677 38.9062 58.1562 39.6948 58.1562 40.6641V55.8984C58.1562 56.8677 57.3677 57.6562 56.3984 57.6562H4.60156C3.6323 57.6562 2.84375 56.8677 2.84375 55.8984V40.6641C2.84375 39.6948 3.6323 38.9062 4.60156 38.9062H25.2266C25.8738 38.9062 26.3984 38.3816 26.3984 37.7344C26.3984 37.0871 25.8738 36.5625 25.2266 36.5625H4.60156C2.33996 36.5625 0.5 38.4025 0.5 40.6641V55.8984C0.5 58.16 2.33996 60 4.60156 60H56.3984C58.66 60 60.5 58.16 60.5 55.8984V40.6641C60.5 38.4025 58.66 36.5625 56.3984 36.5625Z" fill="white"/>
<path d="M36.5278 45.806L33.0887 45.3063L31.5507 42.1901C31.1209 41.3191 29.8788 41.3191 29.449 42.1901L27.911 45.3063L24.4719 45.806C23.5107 45.9457 23.1269 47.1269 23.8224 47.8049L26.3109 50.2305L25.7235 53.6557C25.5593 54.613 26.5641 55.3431 27.4239 54.8911L30.4998 53.2739L33.5757 54.8911C34.4354 55.3431 35.4403 54.613 35.2761 53.6557L34.6887 50.2305L37.1771 47.8049C37.8728 47.1269 37.489 45.9457 36.5278 45.806ZM32.6116 48.9823C32.3354 49.2514 32.2094 49.6393 32.2746 50.0195L32.5649 51.7116L31.0453 50.9127C30.7039 50.7332 30.296 50.7332 29.9546 50.9127L28.4351 51.7116L28.7253 50.0195C28.7905 49.6393 28.6645 49.2514 28.3883 48.9823L27.159 47.784L28.858 47.5371C29.2397 47.4817 29.5697 47.2419 29.7403 46.8961L30.4999 45.3566L31.2596 46.8961C31.4304 47.2419 31.7603 47.4817 32.1419 47.5371L33.8409 47.784L32.6116 48.9823Z" fill="white"/>
<path d="M52.934 45.8048L49.4949 45.3051L47.957 42.1888C47.5271 41.3179 46.2851 41.3179 45.8552 42.1888L44.3173 45.3051L40.8782 45.8048C39.917 45.9445 39.5332 47.1257 40.2287 47.8037L42.7172 50.2293L42.1297 53.6545C41.9655 54.6118 42.9703 55.3419 43.8301 54.8899L46.906 53.2727L49.982 54.8899C50.8417 55.3419 51.8465 54.6118 51.6824 53.6545L51.0949 50.2293L53.5834 47.8037C54.279 47.1257 53.8952 45.9445 52.934 45.8048ZM49.0179 48.981C48.7417 49.2502 48.6157 49.6381 48.6808 50.0183L48.9711 51.7103L47.4515 50.9115C47.1102 50.7319 46.7023 50.7319 46.3609 50.9115L44.8413 51.7103L45.1316 50.0183C45.1967 49.6381 45.0708 49.2502 44.7946 48.981L43.5653 47.7828L45.2642 47.5359C45.6459 47.4805 45.9759 47.2407 46.1465 46.8949L46.9062 45.3554L47.6659 46.8949C47.8366 47.2407 48.1665 47.4805 48.5482 47.5359L50.2472 47.7828L49.0179 48.981Z" fill="white"/>
<path d="M20.1216 45.8048L16.6824 45.3051L15.1445 42.1888C14.7146 41.3179 13.4726 41.3179 13.0427 42.1888L11.5048 45.3051L8.06565 45.8048C7.10448 45.9445 6.72069 47.1257 7.4162 47.8037L9.90467 50.2293L9.31721 53.6545C9.15303 54.6118 10.1578 55.3419 11.0176 54.8899L14.0935 53.2727L17.1695 54.8899C18.0292 55.3419 19.0341 54.6118 18.8699 53.6545L18.2824 50.2293L20.7709 47.8037C21.4665 47.1257 21.0827 45.9445 20.1216 45.8048ZM16.2054 48.981C15.9292 49.2502 15.8032 49.6381 15.8683 50.0183L16.1586 51.7103L14.6391 50.9115C14.2977 50.7319 13.8898 50.7319 13.5484 50.9115L12.0288 51.7103L12.3191 50.0183C12.3842 49.6381 12.2583 49.2502 11.9821 48.981L10.7528 47.7828L12.4517 47.5359C12.8334 47.4805 13.1634 47.2407 13.334 46.8949L14.0937 45.3554L14.8534 46.8949C15.0241 47.2407 15.354 47.4805 15.7357 47.5359L17.4347 47.7828L16.2054 48.981Z" fill="white"/>
<path d="M30.5 38.9062C31.1472 38.9062 31.6719 38.3816 31.6719 37.7344C31.6719 37.0872 31.1472 36.5625 30.5 36.5625C29.8528 36.5625 29.3281 37.0872 29.3281 37.7344C29.3281 38.3816 29.8528 38.9062 30.5 38.9062Z" fill="white"/>
</g>
<defs>
<clipPath id="clip0_374_220">
<rect width="60" height="60" fill="white" transform="translate(0.5)"/>
</clipPath>
</defs>
</svg>
