<svg width="61" height="60" viewBox="0 0 61 60" fill="none" xmlns="http://www.w3.org/2000/svg">
<g clip-path="url(#clip0_374_233)">
<path d="M59.3282 31.1871H56.1748C55.5277 31.1871 55.0029 30.6625 55.0029 30.0153C55.0029 29.368 55.5277 28.8434 56.1748 28.8434H59.3282C59.9753 28.8434 60.5001 29.368 60.5001 30.0153C60.5001 30.6625 59.9753 31.1871 59.3282 31.1871Z" fill="white"/>
<path d="M48.9567 12.9013C48.6568 12.9013 48.3571 12.787 48.1282 12.5582C47.6706 12.1006 47.6705 11.3587 48.128 10.9009L50.3577 8.6704C50.8151 8.21278 51.5571 8.21243 52.0151 8.67017C52.4727 9.12778 52.4728 9.8697 52.0153 10.3274L49.7856 12.558C49.5567 12.7868 49.2567 12.9013 48.9567 12.9013Z" fill="white"/>
<path d="M51.1864 51.7035C50.8864 51.7035 50.5866 51.589 50.3577 51.3602L48.128 49.1296C47.6705 48.6719 47.6706 47.93 48.1282 47.4724C48.5861 47.0149 49.3278 47.0149 49.7856 47.4726L52.0153 49.7031C52.4728 50.1609 52.4727 50.9028 52.0151 51.3604C51.7862 51.589 51.4863 51.7035 51.1864 51.7035Z" fill="white"/>
<path d="M4.82527 31.1871H1.67187C1.02477 31.1871 0.5 30.6625 0.5 30.0153C0.5 29.368 1.02477 28.8434 1.67187 28.8434H4.82527C5.47238 28.8434 5.99715 29.368 5.99715 30.0153C5.99715 30.6625 5.4725 31.1871 4.82527 31.1871Z" fill="white"/>
<path d="M9.81365 51.7035C9.51376 51.7035 9.214 51.5891 8.98513 51.3603C8.52751 50.9027 8.5274 50.1608 8.9849 49.7031L11.2146 47.4725C11.6721 47.0148 12.4142 47.0147 12.872 47.4723C13.3296 47.9299 13.3297 48.6718 12.8722 49.1296L10.6425 51.3601C10.4136 51.5889 10.1135 51.7035 9.81365 51.7035Z" fill="white"/>
<path d="M12.0434 12.9013C11.7434 12.9013 11.4435 12.7868 11.2146 12.5579L8.98478 10.3274C8.52728 9.86965 8.52739 9.12774 8.98501 8.67012C9.44286 8.21262 10.1847 8.21262 10.6424 8.67036L12.8721 10.9009C13.3296 11.3586 13.3295 12.1006 12.8719 12.5582C12.643 12.7869 12.3433 12.9013 12.0434 12.9013Z" fill="white"/>
<path d="M41.3058 20.0017C40.8142 20.0017 40.3708 19.6837 40.2034 19.224C40.0387 18.7713 40.1806 18.2474 40.5477 17.936C40.9315 17.6105 41.4966 17.5686 41.9242 17.8342C42.3344 18.0889 42.5479 18.5855 42.4543 19.0583C42.3471 19.599 41.8573 20.0017 41.3058 20.0017Z" fill="white"/>
<path d="M53.252 30.7935C53.6547 30.3325 53.6399 29.6393 53.2171 29.1968C53.2169 29.1966 53.2168 29.1965 53.2168 29.1965C53.2156 29.1953 45.8946 21.7621 45.8946 21.7621C45.4402 21.3009 44.6984 21.2955 44.2372 21.7496C43.776 22.2037 43.7705 22.9457 44.2246 23.4068L49.5794 28.8436H41.9273L31.6719 18.5299V10.8449L36.6925 15.872C37.1495 16.33 37.8917 16.3305 38.3498 15.8731C38.8079 15.4157 38.8082 14.6738 38.3508 14.2158L31.3353 7.19114C31.3328 7.18856 31.3292 7.18493 31.3244 7.18024C30.8656 6.7252 30.123 6.72895 29.6681 7.18786C29.6674 7.18856 29.6668 7.18915 29.6663 7.18962L7.79373 29.1858C7.78658 29.193 7.76444 29.2184 7.73186 29.2565C7.33623 29.72 7.36213 30.4113 7.79209 30.8431L7.79373 30.8447C7.79373 30.8447 29.6697 52.8442 29.6701 52.8446C29.6705 52.845 29.6721 52.8465 29.6745 52.8486C30.1421 53.2605 30.8433 53.2613 31.3167 52.8559L31.3311 52.8436L53.2038 30.8473C53.2104 30.8405 53.2274 30.8215 53.252 30.7935ZM39.7874 30.0153L30.5 39.3551L21.2125 30.0152L30.5 20.6753L39.7874 30.0153ZM29.3281 10.8537V18.53L19.0726 28.8434H11.4394L29.3281 10.8537ZM19.0726 31.1872L29.3281 41.5006V49.1768L11.4394 31.1872H19.0726ZM31.6719 49.1768V41.5006L41.9274 31.1872H49.5606L31.6719 49.1768Z" fill="white"/>
</g>
<defs>
<clipPath id="clip0_374_233">
<rect width="60" height="60" fill="white" transform="translate(0.5)"/>
</clipPath>
</defs>
</svg>
