<svg width="108" height="108" viewBox="0 0 108 108" fill="none" xmlns="http://www.w3.org/2000/svg">
<path d="M42.8607 65.4252C39.2982 63.1264 34.4476 62.7214 26.6157 64.8945C18.2795 66.8652 15.4988 68.1027 11.8613 65.577C10.472 64.3395 9.96571 62.3427 10.3201 59.4627C11.1788 54.7883 13.5545 50.2677 17.7226 45.2895C20.0476 42.687 22.2188 40.4633 25.0745 39.5539C27.272 38.9989 27.0695 40.7164 26.792 40.9695C26.5145 40.9695 26.0345 41.0202 25.6801 41.247C25.3763 41.4739 24.5682 42.207 24.5438 43.2177C24.4932 44.7327 26.0588 44.4308 26.7413 43.5964C27.4745 42.6608 28.5601 40.8683 27.7013 39.1752C27.347 38.5695 26.7413 38.1645 25.9576 38.0127C23.3307 37.8608 20.9045 39.0983 18.6563 40.4877C13.7307 43.8983 9.81383 48.6477 7.59008 53.8264C6.30196 56.9595 5.13946 61.4314 6.88321 65.0689C8.22196 67.5945 11.027 68.9352 14.3607 68.6558C16.7101 68.4027 19.5151 67.6452 21.4351 67.1914C23.3307 66.7358 33.0807 63.3758 36.2645 69.2127C36.2645 69.2127 37.3257 67.1408 39.9788 67.1164C42.152 66.9139 45.3095 67.7483 47.6082 69.4414C46.8526 68.3052 44.6795 66.6139 42.8607 65.4252Z" fill="#8C8C8C"/>
<path d="M27.6262 45.8968C25.8075 44.7099 22.1437 46.9824 19.2131 50.8993C16.5356 54.4112 15.3731 58.5043 16.6368 60.3737C18.5062 62.5974 21.9918 59.3631 23.4581 57.6456L23.6606 57.4431C24.6712 56.3574 25.455 55.0674 26.1862 53.8056C26.1862 53.8056 26.8687 52.6693 26.9193 52.6187C27.3487 52.5437 27.8549 52.4162 28.4343 52.2399C28.4343 52.2643 26.2106 55.9787 26.4393 57.8237C26.5143 58.3787 26.4637 60.4506 28.4606 61.0581C31.1381 61.5137 33.2606 59.4418 35.1562 57.5968C35.1562 57.5968 35.4843 57.2931 35.6606 57.1168C35.61 57.2931 35.5593 57.5462 35.5593 57.5462C34.7756 60.2743 35.8368 60.8312 36.495 61.0581C38.49 61.6393 40.8656 58.7331 40.89 58.7331C40.8393 59.6424 40.6368 60.3999 41.5968 61.0074C42.5062 61.3356 43.4156 60.8312 44.1225 60.3756C46.6481 58.6074 48.6693 55.8287 50.3118 53.4287H49.2768C49.2768 53.4287 46.7006 57.1431 45.0318 57.9512C45.0318 57.9512 44.7281 58.1031 44.5518 57.9756C44.325 57.7993 44.4262 57.4206 44.5518 57.1412C44.5518 57.1168 50.9943 45.9756 50.9943 45.9756H47.9643C47.9643 45.9756 47.6362 46.5062 47.61 46.5568C47.5856 46.5324 47.535 46.4556 47.5087 46.4049C45.6393 43.8024 41.37 47.7943 38.1618 52.4424C36.9243 54.2368 35.3568 56.2318 33.7406 57.6718C33.7406 57.6718 31.3406 59.8956 30.3056 58.3037C29.9268 57.6474 30.0525 56.6612 30.255 56.0293C31.4681 52.6187 33.5137 49.5118 35.8893 47.6424C36.5456 47.1381 37.2787 46.9862 37.6331 47.1868C37.9875 47.3874 38.0381 47.8937 37.8093 48.2218C37.2543 48.1974 36.825 48.3737 36.4706 48.7524C35.7637 49.4856 35.5106 50.1924 35.7375 50.8749C36.8231 52.4162 38.9962 49.3599 38.895 47.5149C38.8706 46.8587 38.49 46.2268 37.9593 45.8987C37.1756 45.4187 35.9643 45.5443 35.1806 45.9231C34.1456 46.3281 32.4768 47.6912 31.5168 48.7787C30.3037 50.1174 28.2075 51.6081 27.5512 51.4562C27.7031 50.8487 29.4712 47.2356 27.6262 45.8968ZM42.255 51.2274C42.8362 50.4193 44.5537 48.2218 44.9831 47.8674C46.3987 46.6299 46.9537 47.1849 47.0043 47.5637C45.69 49.9131 44.1487 52.6168 42.6843 55.0412L42.2287 55.7237C41.5968 56.7081 40.9406 57.5424 39.8793 58.1481C39.7275 58.1987 39.4743 58.1987 39.3243 58.0974C39.1218 57.9718 39.0468 57.7431 39.0712 57.5162C39.0956 56.7343 39.8793 54.4356 42.255 51.2274ZM25.7325 52.6412C25.7325 52.6412 25.7081 52.7162 25.6818 52.7424L24.3674 54.8893C23.5593 55.9506 22.5731 57.2893 21.3356 57.9212C20.9568 58.0468 20.4506 58.1237 20.1993 57.7956C19.6443 57.1393 19.9218 56.2299 20.1749 55.4968L20.2499 55.2437C20.9062 53.4493 21.9674 51.8837 22.9781 50.3931C23.0024 50.3931 23.0287 50.3687 23.0287 50.3687C23.0287 50.3687 23.0287 50.3687 23.0287 50.3931C23.6606 51.6306 24.8737 52.1874 25.7568 52.4649C25.7568 52.4649 25.7568 52.4649 25.7568 52.4893C25.7831 52.5418 25.7831 52.5662 25.7325 52.6412ZM26.9943 50.1156C26.9943 50.1399 26.4131 51.4806 26.4131 51.4806C26.3381 51.5556 26.1862 51.5049 26.0343 51.4806L25.7812 51.4299C24.9731 51.1768 24.3412 50.6218 24.165 49.9899C23.9118 48.7262 24.9731 47.7418 25.4531 47.3631C25.9087 47.0349 26.6156 46.8831 27.045 47.2112C27.2981 47.5149 27.3993 47.8937 27.3993 48.3231C27.3731 48.8781 27.1968 49.5099 26.9943 50.1156Z" fill="#8C8C8C"/>
<path d="M65.3457 54.1828C65.0419 53.551 64.3613 53.1478 63.6282 53.1985C61.2282 53.4253 58.8788 55.396 57.6413 58.2253C56.9851 59.6897 56.6307 60.8785 56.4038 62.7985C57.1613 61.9397 58.6782 60.5241 60.3957 59.7422C60.3957 59.7422 60.6226 57.8972 61.8357 56.281C62.2913 55.5985 63.2007 54.5128 64.2113 54.8166C65.0963 55.1203 64.7926 57.5953 63.6057 59.971C62.7207 61.7391 61.3819 63.4828 60.0188 64.696C58.8057 65.7066 57.0376 66.9441 55.4963 65.9841C54.5119 65.4028 54.0319 64.1897 54.1313 62.6241C54.6113 58.1785 56.6063 54.4135 59.5126 50.1178C62.4938 46.126 65.7788 42.0085 70.1982 39.8353C71.1076 39.3797 71.9419 39.2803 72.6488 39.5578C72.6488 39.5578 68.5051 41.8322 66.51 46.0753C66.0057 47.1366 65.2969 48.601 66.0057 49.891C66.3844 50.5472 67.0163 50.6241 67.5469 50.5735C69.9713 50.0185 71.5388 47.7441 72.8269 45.6722C73.5601 44.1066 74.2426 42.5391 74.2426 40.7972C74.2426 40.5947 74.2426 40.3172 74.2182 40.0903C75.3807 39.4847 77.7544 40.5703 77.7544 40.5703C79.6238 41.176 83.5651 44.2078 84.9038 44.7891C85.5601 44.0316 86.6213 42.8935 87.2288 42.3141L86.3438 41.7835C84.9544 40.9247 83.4638 40.1166 82.0238 39.3328C78.7144 37.5385 76.0369 38.1703 74.6719 38.6503C74.1413 38.8528 73.6369 39.0047 73.6369 39.0047C72.6263 37.8928 70.9594 37.9941 69.7463 38.2978C65.3513 39.5616 61.2582 42.6441 56.8613 47.9991C53.6269 52.1935 51.6319 55.8047 50.5707 59.3935C49.7363 61.7935 49.5094 65.3297 51.5063 67.4278C53.1994 69.2222 55.4719 68.8172 57.0638 68.1853C60.525 66.4922 63.6319 62.8041 65.1732 58.5853C65.5725 57.316 65.9776 55.5478 65.3457 54.1828ZM73.3032 40.9453C72.8476 46.201 68.7563 49.2816 67.7457 49.5347C67.1401 49.6603 66.0788 49.3828 67.0126 47.1853C68.3776 44.2041 70.7269 41.7028 73.2526 40.4147C73.3032 40.6172 73.3032 40.7428 73.3032 40.9453Z" fill="#8C8C8C"/>
<path d="M97.5057 41.6273C95.3082 42.8648 93.0338 43.6729 90.2794 43.3954C89.5219 44.2542 88.7644 45.1392 88.0819 46.0485C91.9482 47.0329 96.0394 44.8354 98.3382 42.7635C100.764 40.6673 102.002 38.0142 102.002 38.0142C102.002 38.0142 100.183 40.086 97.5057 41.6273Z" fill="#8C8C8C"/>
<path d="M55.997 45.998H53.117L51.5007 48.6249H54.3807L55.997 45.998Z" fill="#8C8C8C"/>
<path d="M90.2794 65.6782C89.9756 65.8807 89.5462 65.7288 89.6981 65.2488C90.1031 64.0113 91.7194 61.5101 91.7194 61.5101L96.2156 53.5526H93.1331C92.9812 53.7794 92.6775 54.3363 92.6775 54.3363C92.5256 54.1094 92.1225 53.5788 91.9444 53.4513C91.1869 52.9713 90.0994 53.1982 89.3419 53.6276C86.0325 55.5476 83.6325 59.3876 81.7125 62.3426C81.7125 62.3426 79.7175 65.6519 78.6056 65.9051C77.7469 65.9801 77.8219 64.8194 77.8725 64.5401C78.2006 62.5694 78.9844 60.7001 79.7681 59.0069C81.36 57.8951 83.1787 56.455 84.8456 54.8632C88.4325 51.4282 91.4644 47.5375 91.92 46.6769C91.92 46.6769 91.44 46.7782 90.885 46.8026C88.1306 50.6688 82.4719 56.2507 80.7544 57.0851C81.5119 55.2663 86.4131 46.525 90.6075 42.3569L91.2637 41.725C92.2744 40.7407 93.3356 39.7038 94.1437 39.5519C94.2187 39.5519 94.3462 39.5519 94.4475 39.7544C94.4719 40.5382 94.1944 41.0932 93.8662 41.7494L93.4106 42.7094C93.4106 42.7094 94.0669 42.5838 94.4962 42.4563C95.0006 41.5207 95.5575 40.4613 95.355 39.1975C95.28 38.7925 95.0006 38.4907 94.6219 38.4138C93.3844 38.1869 92.0194 39.0963 90.9337 39.8538L90.8831 39.8782C85.275 44.2732 80.5256 50.6144 76.3819 59.2807C76.0781 59.5075 74.9175 59.7851 74.715 59.6594C75.12 58.8251 75.6506 57.6888 75.9019 56.4513C75.9525 56.0969 75.9769 55.7444 75.9769 55.39C75.9769 54.6325 75.8006 53.9257 75.1181 53.4194C74.3344 53.0144 73.35 53.2169 72.6937 53.4944C69.7387 54.7319 67.515 57.7638 65.9231 60.265C65.0644 61.8569 64.2056 63.5501 63.9787 65.5207C63.8025 67.0357 64.155 68.0219 65.0137 68.5263C65.8987 68.9819 67.035 68.5019 67.4644 68.2732C70.47 66.6813 72.5681 63.5238 74.2106 60.6175C74.2856 60.6175 75.1706 60.5932 75.8531 60.4151H75.8775C75.8269 60.5407 75.4725 61.6019 75.4725 61.6019C74.4375 64.6844 73.9312 66.7563 74.9419 67.9938C76.3575 69.7376 78.7069 67.9432 80.6006 65.5432C80.1956 68.3988 81.6862 68.8526 82.7981 68.6257C84.0862 68.2713 85.5525 66.8819 86.2087 66.1751C85.9819 67.0094 86.0569 68.5001 87.2437 68.6501C88.0519 68.8019 88.6594 68.3463 89.3662 67.9938C91.8919 66.6288 94.8994 62.0576 95.6812 60.7432H94.6462C93.4631 62.4194 92.0494 64.6432 90.2794 65.6782ZM67.695 65.3744C67.5431 65.1476 67.4925 64.8701 67.4681 64.5907C67.4437 62.8732 69.2869 59.7907 70.6012 58.0975C71.1562 59.3107 72.3956 60.0682 73.1269 60.3963C72.2175 62.4701 69.0075 66.9157 67.695 65.3744ZM73.6575 59.4888C73.5562 59.5394 72.015 59.0332 71.7131 57.5688C71.46 56.3313 72.3187 55.3451 73.1531 54.8651C73.5075 54.5876 74.0381 54.4863 74.4412 54.6382C74.7956 54.8913 74.8969 55.3207 74.8969 55.8007C74.8969 56.0782 74.8462 56.3819 74.8219 56.6594V56.7101C74.5406 57.6701 74.1619 58.6301 73.6575 59.4888ZM86.2125 64.8194L85.9087 65.0726C85.4794 65.4513 85.05 65.8563 84.5194 65.6538C84.3675 65.6032 84.2662 65.4007 84.2419 65.2488C84.2175 64.1632 84.6975 63.1769 85.1775 62.1925L85.3031 61.9394C86.6681 59.665 88.2337 57.0138 90.5587 55.1444C90.9375 54.8669 91.3669 54.6138 91.8225 54.8163C91.9237 54.9175 92.0494 55.0694 92.0494 55.2457C92.0494 55.2963 91.9987 55.4482 91.9744 55.4725C91.3181 56.5075 90.7106 57.6194 90.105 58.6807C88.9406 60.7769 87.7294 62.9238 86.2125 64.8194Z" fill="#8C8C8C"/>
</svg>
