<svg width="108" height="108" viewBox="0 0 108 108" fill="none" xmlns="http://www.w3.org/2000/svg">
<path d="M54 15C32.4606 15 15 32.4606 15 54C15 75.5394 32.4606 93 54 93C75.5359 93 92.9965 75.5394 93 54.007C92.9965 32.4711 75.5394 15.0105 54.007 15H54ZM54.007 17.4759C74.181 17.4759 90.5346 33.826 90.5346 54V54.014C90.5206 74.174 74.1705 90.5136 54.007 90.5171C33.833 90.5171 17.4794 74.174 17.4794 54C17.4794 33.826 33.8295 17.4759 54.007 17.4759ZM44.3303 39.5007C42.0779 39.5007 40.2585 41.3201 40.2585 43.5725V43.5865C40.2585 47.2323 44.6621 49.0586 47.2393 46.4815C49.8164 43.9043 47.9901 39.4972 44.3443 39.5007H44.3303ZM21.635 47.2148V49.6942H23.5592V58.3023H21.6385V60.7922H37.8559V58.5223L39.7312 56.6366L44.9205 61.8433L42.9998 63.7535L44.2465 65.0107L54.6286 54.6146V52.1247L51.7441 55.0232L45.2907 48.5698L37.8559 56.0184V54.007L31.2069 57.7086V49.6977H33.1241V47.2148H21.635ZM52.7324 47.2148V49.6942H54.6495V58.3023H52.7114V60.7922H63.6382C71.7574 60.7922 71.8622 47.2148 63.6662 47.2148H52.7324ZM70.0638 47.2148V49.6942H71.9844V58.3023H70.0638V60.7922H86.2951V54.007L79.6392 57.7086V49.6977H81.5598V47.2148H70.0638ZM61.5779 51.4403H62.0424C64.4414 51.4403 64.4345 56.5423 62.1227 56.5423H61.5779V51.4438V51.4403Z" fill="#8C8C8C"/>
</svg>
