<svg width="108" height="108" viewBox="0 0 108 108" fill="none" xmlns="http://www.w3.org/2000/svg">
<path d="M46.4175 43.8793C46.4734 43.8456 48.1454 42.7414 50.6451 42.7368C51.0934 42.7368 51.5686 42.7734 52.0659 42.8594L52.0843 42.8632L52.1024 42.8677C52.1041 42.8663 52.4709 42.9558 53.0992 43.0487C53.7268 43.1406 54.5996 43.2332 55.5645 43.2332C57.0805 43.2353 58.8143 42.9979 60.1751 42.2324L60.7673 43.2959C59.1196 44.2142 57.1986 44.4488 55.5645 44.4509C53.6045 44.4502 52.0413 44.1032 51.8423 44.0579C51.4471 43.9898 51.0468 43.9557 50.6458 43.9559C48.7831 43.9531 47.4119 44.6998 47.1361 44.8669C47.0965 44.8909 47.0868 44.8975 47.0868 44.8975L46.4175 43.8793ZM54.6354 50.0133C54.4253 49.4619 54.3829 48.8597 54.3811 48.3194C54.3811 48.0834 54.3912 47.8599 54.4048 47.6633C53.1093 47.837 51.438 48.3905 50.0442 48.9499C49.0401 49.3493 48.0526 49.7893 47.084 50.2688L46.5353 49.1817C46.5464 49.1765 47.8749 48.5032 49.5951 47.8182C51.3227 47.1352 53.4101 46.4292 55.0761 46.3895L55.8048 46.3753L55.6874 47.0962C55.6888 47.0969 55.6662 47.2285 55.6433 47.454C55.6197 47.6803 55.5964 47.9919 55.5971 48.3194C55.5943 48.7782 55.6492 49.2743 55.7687 49.5719C55.9173 49.8842 55.9479 49.8932 56.1132 49.9082C56.1525 49.9082 56.2014 49.9037 56.2626 49.8911C56.3453 49.8604 56.4258 49.824 56.5036 49.7822C56.7085 49.6739 57.0444 49.4654 57.5091 49.0821C58.4385 48.3156 59.8833 46.8473 61.8276 44.0941L62.8199 44.7987C58.8386 50.4262 56.7853 51.0121 56.5567 51.0733C56.4117 51.1082 56.2631 51.1262 56.1139 51.1269L56.0854 51.1273C55.3338 51.1273 54.8129 50.5449 54.6354 50.0133ZM51.5915 53.2316C51.0483 52.825 50.4527 52.692 49.873 52.6906C49.1183 52.6885 48.4195 52.935 48.1395 53.0541C48.0457 53.0934 48.0093 53.1122 48.0093 53.1122L47.987 53.1233L42.9322 55.22L42.4668 54.0942L47.4873 52.0125C47.6602 51.9307 48.6303 51.4771 49.873 51.4726C50.6385 51.4712 51.5262 51.6588 52.3212 52.2569C53.1176 52.8546 53.7838 53.8373 54.1915 55.3035L53.0193 55.6308C52.6612 54.3508 52.1344 53.6406 51.5915 53.2316Z" fill="#8C8C8C"/>
<path d="M46.5782 55.9623C46.5789 55.9616 47.0575 55.9622 47.8456 55.9271C48.873 55.8802 49.8983 55.7965 50.9197 55.6761C53.3089 55.398 56.1427 54.802 57.7646 53.7406C57.7646 53.7399 57.8445 53.6888 57.9831 53.5882C58.1206 53.4882 58.3092 53.3445 58.5082 53.1763C58.9059 52.847 59.1567 52.5588 59.3734 52.2027L59.4512 52.0923L59.4717 52.0457L59.4974 52.0053C59.5068 51.9924 60.3122 50.7438 61.4389 49.4049C62.5854 48.0713 63.9726 46.6215 65.4827 46.2319L66.4305 47.0782C65.7487 47.2261 64.1358 48.2416 63.2157 49.2462C62.3332 50.1635 61.532 51.2189 61.0381 51.911C60.866 52.1513 60.6982 52.3946 60.5348 52.641C59.7579 53.9558 58.4603 54.715 58.4273 54.7623C56.4643 56.0204 53.5378 56.5847 51.0642 56.8858C48.5951 57.181 46.5939 57.1799 46.5789 57.181V55.9623H46.5782Z" fill="#8C8C8C"/>
<path d="M60.2955 54.6055C59.4529 54.6055 58.9382 54.4395 58.8892 54.4238L59.2737 53.2681C59.2737 53.2667 59.2765 53.2695 59.3164 53.2796C59.357 53.2904 59.423 53.306 59.5113 53.3221C59.6877 53.3537 59.9548 53.3875 60.2955 53.3875C62.245 53.3033 63.5894 52.504 65.3771 51.1655L65.2923 52.7672C63.3047 54.264 61.4889 54.6059 60.3104 54.6059L60.2955 54.6055ZM27.4112 65.0721L27.4244 63.8537H27.4602C27.7502 63.8687 30.046 63.7688 31.2966 62.6162L31.3116 62.603L39.6621 56.0352L40.4123 56.9936L32.0917 63.5383C30.3405 65.0578 27.8613 65.0578 27.4602 65.0724L27.4112 65.0721Z" fill="#8C8C8C"/>
<path d="M37.7883 58.4267L38.6976 57.6187C38.6976 57.618 38.7198 57.6441 38.7761 57.7026C39.1404 58.0762 39.5372 58.4165 39.9618 58.7194C40.7443 59.2788 41.7991 59.8059 42.8487 59.8003C42.9126 59.8003 42.9796 59.7975 43.0495 59.7937C43.1109 59.7864 43.4673 59.7463 43.8879 59.6705C44.3432 59.5939 44.769 59.4438 45.0719 59.3439L45.2025 59.3032L45.2428 59.2882C45.2824 59.276 46.8039 58.6919 48.8354 58.6898H57.5975C57.5975 58.6898 57.6117 58.6905 57.66 58.6905C58.3751 58.6658 65.168 58.4973 69.7008 48.6027L70.806 49.1085C66.0936 59.487 58.6363 59.9329 57.66 59.9089C57.5968 59.9089 57.561 59.9072 57.576 59.9072H48.8357C47.4948 59.9065 46.3069 60.2177 45.8151 60.3705C45.7113 60.4022 45.6425 60.4255 45.6057 60.4384C45.0059 60.6559 44.5992 60.7757 44.1025 60.87C43.793 60.9254 43.4817 60.9708 43.1693 61.0061L43.1498 61.0079L43.1415 61.0086C43.0453 61.0148 42.948 61.0183 42.8484 61.0183C39.9726 60.9762 37.8529 58.4667 37.7883 58.4267ZM37.7876 58.4263L37.7883 58.4267L37.7876 58.427V58.4263ZM17.7947 60.7346V57.705L17.7964 57.6821C17.8009 57.6434 17.8371 57.2013 18.0559 56.6555C18.2722 56.117 18.6967 55.435 19.5181 55.0803L28.5691 51.3733C28.624 51.3531 29.0415 51.209 29.75 51.209C31.1556 51.2031 33.6695 51.7976 36.638 54.8714H36.6387L35.7659 55.7201C32.9644 52.8374 30.8201 52.4322 29.75 52.4274C29.3103 52.4274 29.0474 52.4998 28.9915 52.5161L19.9873 56.2036C19.2854 56.4658 19.0325 57.4937 19.0124 57.7461C19.0112 57.7532 19.0102 57.7603 19.0092 57.7673L19.0099 60.735L17.7947 60.7346ZM40.0139 52.6853C39.9566 52.6871 39.8976 52.6881 39.8361 52.6881C37.3597 52.6801 35.6207 51.0057 34.5256 49.4476C33.5278 48.0262 33.0085 46.6366 32.9089 46.3595C32.6359 45.8492 32.1986 45.7364 31.6651 45.7218C31.3776 45.725 31.0918 45.7664 30.8152 45.845C30.7701 45.8582 30.7572 45.8628 30.7572 45.8628L30.7225 45.8746L29.0342 46.231L28.7827 45.0388L30.4044 44.6969C30.8129 44.5708 31.2377 44.5054 31.6651 44.503C32.4059 44.4877 33.4778 44.7624 34.0105 45.8412L34.0289 45.8791L34.0425 45.9178C34.0425 45.9178 34.0682 45.9943 34.1283 46.1475C34.1884 46.301 34.2797 46.5235 34.4034 46.7908C34.6496 47.3248 35.023 48.0402 35.5196 48.7454C36.5234 50.1702 37.9686 51.4784 39.8364 51.4697C39.8875 51.4697 39.9434 51.469 40.0031 51.4666L40.0306 51.4652L40.0639 51.4676C40.0639 51.4669 40.1018 51.4711 40.2077 51.4711C40.7467 51.4711 42.6997 51.3625 44.8576 49.9551L45.5206 50.9768C43.0998 52.5537 40.9016 52.6891 40.2077 52.6891C40.1431 52.6892 40.0785 52.6879 40.0139 52.6853Z" fill="#8C8C8C"/>
<path d="M29.8944 49.6805L30.0066 48.4666C30.2209 48.4864 30.5102 48.4969 30.8314 48.4969C32.3405 48.4969 34.5359 48.2936 34.5394 48.2929L34.6526 49.5061C34.6429 49.5067 32.434 49.7149 30.8314 49.7156C30.4859 49.7156 30.1684 49.7059 29.8944 49.6805ZM23.3138 49.1579L23.2811 49.1099C23.2523 49.0566 22.5778 48.0771 22.5695 46.6791C22.5673 46.0708 22.7087 45.4707 22.9821 44.9277L24.0682 45.4739C23.8801 45.8476 23.7832 46.2606 23.7854 46.6791C23.7802 47.4954 24.1536 48.2059 24.263 48.3858L27.6448 51.7754H27.6455L26.7849 52.6369L23.3138 49.1579Z" fill="#8C8C8C"/>
<path d="M22.7164 44.983C22.0634 44.1987 21.5949 43.2132 21.5959 42.0683C21.5953 41.425 21.7422 40.7417 22.0589 40.0347L23.1679 40.5318C22.9137 41.1034 22.8123 41.6095 22.8123 42.0683C22.8084 43.2686 23.5343 44.2642 24.5645 45.0826C25.5852 45.893 26.8602 46.4653 27.7077 46.7824C28.2724 46.9951 28.6326 47.0919 28.6336 47.0926L28.3151 48.2685C28.271 48.2406 24.685 47.3202 22.7164 44.983Z" fill="#8C8C8C"/>
<path d="M32.5379 42.8403C32.2219 42.7811 32.0472 42.7598 32.0465 42.7598L32.0333 42.7578L32.0204 42.7557C31.8874 42.7345 31.7529 42.7248 31.6182 42.7268C31.0851 42.7247 30.4231 42.8618 29.9115 43.0056C29.3978 43.1487 29.0446 43.2876 29.0432 43.2883L29.0189 43.2973L28.9936 43.305C28.6664 43.4011 28.3302 43.4404 27.9985 43.4404C26.0893 43.4195 24.1808 42.2401 23.8533 42.0431C22.4428 41.3291 21.9066 40.4293 21.9139 39.6613C21.9208 39.0215 22.2334 38.647 22.2761 38.5899L22.2938 38.5683L22.3143 38.5477C24.5184 36.4114 28.6264 36.4389 29.3048 36.4107C29.3638 36.4107 29.3964 36.4114 29.4013 36.4114L29.3721 37.6294C29.3714 37.6294 29.3527 37.6287 29.3048 37.6287C28.7383 37.6005 24.7938 37.7725 23.2114 39.3703C23.1582 39.4579 23.13 39.5584 23.1298 39.661C23.1371 39.8566 23.2045 40.3158 24.4125 40.9615L24.4354 40.973L24.4614 40.9894C24.4614 40.9887 24.5722 41.0604 24.7817 41.178C24.9907 41.2957 25.2901 41.4537 25.6406 41.6111C26.339 41.9272 27.2493 42.2269 27.9985 42.2224C28.2302 42.2224 28.4465 42.1949 28.6389 42.1395C28.8904 42.0466 30.3022 41.5161 31.6186 41.5077C31.8197 41.5077 32.0215 41.5206 32.2222 41.554V41.5547C32.5365 41.602 35.8597 42.1521 38.1131 43.8522L37.094 44.6856C35.6089 43.5462 33.4854 43.0143 32.5379 42.8403ZM29.2561 31.32C29.2561 31.32 29.0391 33.9308 26.3039 33.7132C26.3039 33.7132 24.4805 35.8454 22.6137 34.9316C22.6137 34.9316 19.4879 36.4981 17.9683 33.6697C17.9683 33.6697 16.7961 31.32 19.1405 30.1451C19.1405 30.1451 19.922 27.2297 24.003 27.5778C24.003 27.5778 22.9596 27.3338 22.8308 26.3594C22.8308 26.3594 19.0103 25.7502 19.1405 22.5302C19.1405 22.5302 16.6871 20.4047 18.4893 18.0919C18.4893 18.0919 20.1721 15.9618 22.9176 17.8743C22.9176 17.8743 26.7381 17.7002 27.3459 20.6592C27.3459 20.6592 28.9522 20.9638 29.0825 22.2256C29.0825 22.2256 29.2322 18.5604 32.2952 18.3965C32.2952 18.3965 34.5527 15.9597 36.7669 17.5262C36.7669 17.5262 39.129 19.2869 37.3312 21.7905C37.3312 21.7905 37.8956 24.4884 35.3776 25.4892C35.3776 25.4892 34.6736 28.0359 31.7797 27.4664C31.7797 27.4664 34.2224 26.8311 34.2085 24.6694C34.2085 24.6694 36.5084 23.9443 35.9138 21.6137C35.9138 21.6137 37.0767 20.2411 36.3014 19.0238C36.3014 19.0238 35.0028 17.1913 33.459 19.3865C33.459 19.3865 30.5134 19.2309 30.3068 22.5717C30.3068 22.5717 29.17 23.3744 29.1957 24.6955C29.1957 24.6955 28.3944 21.7432 26.4825 21.7432C26.4825 21.7432 25.8104 18.4542 22.4515 19.1275C22.4515 19.1275 20.7066 17.7566 19.6612 19.0499C19.6612 19.0499 18.6109 20.4047 20.2297 21.7432C20.2297 21.7432 20.3589 25.0321 23.4598 25.1616C23.4598 25.1616 24.2864 27.2593 26.4568 27.2593V27.5959C26.4568 27.5959 24.5191 27.6217 24.235 28.6576C24.235 28.6576 20.8247 28.062 20.2818 30.7035C20.2818 30.7035 18.6022 31.5838 19.3257 33.1378C19.3257 33.1378 20.2836 34.9337 22.2195 33.4744C22.2195 33.4744 24.2346 34.9246 25.5266 32.7493C25.5263 32.7497 27.6626 33.2311 29.2561 31.32Z" fill="#8C8C8C"/>
<path d="M22.3736 21.0953C22.3736 21.0953 25.8103 22.7008 26.7661 24.151L26.3788 24.9022C26.3788 24.9022 21.9082 21.5875 22.3736 21.0953ZM22.1409 31.6357C22.1409 31.6357 24.8027 29.4861 27.2568 29.4342L27.567 30.237C27.567 30.237 22.7094 32.076 22.1409 31.6357ZM31.3138 25.8863C31.3138 25.8863 33.7947 22.8042 34.208 21.1211C34.208 21.1211 33.5103 20.4993 30.7196 25.1093L31.3138 25.8863ZM29.489 27.2241C29.489 27.2241 32.1926 30.1854 32.6833 31.7394L31.6761 33.1381C31.6761 33.1381 30.151 29.8234 28.9368 27.9067C28.9368 27.9067 28.6805 27.5071 28.9111 27.285C28.9111 27.2847 29.2178 26.9846 29.489 27.2241ZM51.3742 36.7128H56.7933L57.1063 37.8783H51.0616L51.3742 36.7128ZM73.7441 26.9546C73.7441 26.9546 78.2777 20.6354 79.2672 18.6509H80.6741C80.6741 18.6509 77.6087 24.4883 79.8927 24.9179C79.8927 24.9179 82.7066 25.2312 88.0213 22.6722V24.1346C88.0213 24.1346 77.4431 29.4095 77.7042 23.6647L74.6822 28.0519L73.7441 26.9546ZM77.1833 31.2371L89.6363 25.8055V27.3202L84.0094 29.5136C84.0094 29.5136 82.6017 30.1402 84.1654 30.1402C84.1654 30.1402 86.6143 30.1402 88.0213 29.6702V30.7146C88.0213 30.7146 85.1552 31.4978 82.0808 31.2889C82.0808 31.2889 78.8674 31.2757 78.1207 32.4903L77.1833 31.2371ZM31.9039 39.8482C31.9039 39.8482 33.8142 35.4098 34.7259 34.4525C34.7259 34.4525 38.8937 29.8401 39.5015 27.4469C39.5015 27.4469 39.9072 23.9849 41.4701 23.4193C41.4701 23.4193 43.157 22.5455 45.1888 23.7917L47.0122 23.9223L46.0137 25.0536L47.2727 26.185C47.2727 26.185 44.9283 26.8377 44.6678 29.1004C44.6678 29.1004 46.2742 27.0988 49.3132 26.4461L47.3161 24.8796L48.8356 22.7909L46.1439 22.878C46.1439 22.878 43.9298 21.5725 41.8459 21.9207C41.8459 21.9207 38.8937 22.4428 38.4595 26.0544C38.4595 26.0544 38.0688 28.7088 36.6795 30.0142C36.6795 30.0142 31.8605 35.0182 30.4713 39.8482H31.9039Z" fill="#8C8C8C"/>
<path d="M44.1058 25.8075C43.806 26.2065 43.0781 26.4192 42.6936 26.1285C42.3091 25.8385 42.413 25.1552 42.7134 24.7559C43.0131 24.357 43.5681 24.2689 43.9526 24.5592C44.3371 24.8495 44.4055 25.4086 44.1058 25.8075ZM55.7537 20.7074C56.24 20.4822 57.2632 20.6291 57.4976 21.1415C57.7338 21.6536 57.094 22.3376 56.6078 22.5625C56.1215 22.7873 55.5353 22.5545 55.2998 22.0417C55.0643 21.5289 55.2675 20.9312 55.7537 20.7074ZM47.0802 33.6689C46.7982 34.0448 46.1122 34.245 45.75 33.971C45.3881 33.6978 45.486 33.0541 45.7684 32.6781C46.0511 32.3025 46.5738 32.2193 46.9361 32.4929C47.2987 32.7666 47.3633 33.2929 47.0802 33.6689Z" fill="#8C8C8C"/>
<path d="M37.5482 41.5022L38.8507 42.2854L41.9765 37.7165C41.9765 37.7165 42.6711 36.7592 42.6711 35.3233C42.6711 35.3233 42.6145 33.0773 43.3224 32.3643C43.3224 32.3643 44.4945 30.8414 47.0126 31.233C47.0126 31.233 48.315 31.5811 49.2267 31.0589L48.4887 32.4079L49.878 33.0606C49.878 33.0606 46.0575 36.0195 47.577 41.6762H47.8809C47.8809 41.6762 47.5336 35.1927 52.0487 32.93L49.9214 31.9727L50.7462 29.6665C50.7462 29.6665 48.9117 30.4654 47.6638 30.2757C47.6638 30.2757 44.3643 29.4924 42.975 30.7108C42.975 30.7108 41.3204 31.7994 41.3687 34.8011C41.3687 34.8011 41.3385 36.3077 40.6307 37.2379L37.5482 41.5022ZM82.3649 49.1766C78.5118 45.9211 72.2399 38.5575 72.2399 38.5575C71.7051 38.0242 72.0833 39.2085 72.0833 39.2085C74.1217 44.2373 82.2524 49.7154 82.2524 49.7154C82.2524 49.7154 82.6344 49.9765 82.8133 49.8352C82.8133 49.8352 83.0238 49.7092 82.3649 49.1766Z" fill="#8C8C8C"/>
<path d="M65.7385 43.4024C65.7385 43.4024 59.0818 37.9486 59.0818 29.9421C59.0818 29.9421 59.4292 23.9083 53.2935 25.7067L54.2194 24.0243H52.3092L53.1111 22.6725C53.1111 22.6725 53.4664 21.9436 53.6984 21.2975C53.6984 21.2975 54.5091 18.5704 57.1139 18.4545C57.1139 18.4545 59.8959 18.081 61.7086 20.2024C61.7086 20.2024 63.5504 22.2837 64.2919 23.0958C64.2919 23.0958 66.19 24.9311 67.4178 25.9966C67.4178 25.9966 75.2901 32.7847 79.6315 41.1393C79.6315 41.1393 86.0135 53.4307 87.2725 56.0498C87.2725 56.0498 89.0844 59.0021 85.5942 56.4557C85.5942 56.4557 69.212 46.4765 62.6714 30.4058C62.6714 30.4058 61.9951 29.0697 62.2705 30.9098C62.2705 30.9098 63.0763 37.542 70.6739 45.505C70.6739 45.505 79.0529 54.3817 85.3914 57.9933C85.3914 57.9933 88.7343 60.2995 89.5592 59.7339C89.5592 59.7339 90.5386 59.6016 88.5173 55.2085C88.5173 55.2085 82.2222 41.2406 76.2744 33.4952C76.2744 33.4952 72.589 28.511 69.7188 26.0544C69.7188 26.0544 65.3283 22.0567 64.4222 20.9198C64.4222 20.9198 61.0685 16.8623 57.4758 17.0036C57.4758 17.0036 53.6119 16.9166 52.5266 20.7893C52.5266 20.7893 51.9841 22.7366 50.0085 24.9666H52.4832L51.1807 27.0987C51.1807 27.0987 55.9563 25.7933 57.0851 27.5774C57.0851 27.5774 57.8232 28.8393 57.7797 30.7539C57.7797 30.7539 57.5627 38.5863 65.551 43.8079L65.7385 43.4024ZM60.153 72.1791H30.8106C30.6017 72.1791 30.4013 72.2623 30.2536 72.4103C30.1059 72.5584 30.0229 72.7592 30.0229 72.9686V84.6403C30.0229 84.9341 29.8708 84.9341 29.8708 84.9341C29.6916 84.9341 29.6266 84.7545 29.6266 84.7545C29.6248 84.7533 29.623 84.7523 29.6211 84.7514L22.8654 72.9755C22.342 72.1014 21.5199 72.1791 21.5199 72.1791H18.6545C18.4456 72.1791 18.2453 72.2623 18.0975 72.4103C17.9498 72.5584 17.8668 72.7592 17.8668 72.9686V90.2459C17.8668 90.4553 17.9498 90.6561 18.0975 90.8041C18.2453 90.9522 18.4456 91.0354 18.6545 91.0354H20.6683C20.8772 91.0354 21.0775 90.9522 21.2253 90.8041C21.373 90.6561 21.456 90.4553 21.456 90.2459V78.1697C21.456 78.1697 21.4459 77.9949 21.5949 77.9949C21.5949 77.9949 21.7401 77.9974 21.8689 78.2449L28.6958 90.3301C28.6958 90.3301 29.0917 91.0295 29.8666 91.0295H30.7498C30.7703 91.0312 30.7898 91.0357 30.8106 91.0357H32.8244C32.9278 91.0357 33.0302 91.0153 33.1258 90.9756C33.2214 90.936 33.3082 90.8778 33.3814 90.8045C33.4545 90.7312 33.5125 90.6441 33.5521 90.5484C33.5917 90.4526 33.6121 90.3499 33.6121 90.2462V75.138H60.153C60.3618 75.1379 60.5621 75.0547 60.7099 74.9067C60.8576 74.7586 60.9406 74.5578 60.9407 74.3485V72.9682C60.9405 72.7589 60.8574 72.5583 60.7097 72.4103C60.562 72.2623 60.3618 72.1792 60.153 72.1791ZM74.7111 90.1999C74.711 90.4093 74.628 90.6101 74.4803 90.7581C74.3326 90.9061 74.1323 90.9893 73.9234 90.9894H71.8516C71.6427 90.9893 71.4424 90.9061 71.2947 90.7581C71.147 90.6101 71.064 90.4093 71.0639 90.1999V72.9383C71.064 72.7289 71.147 72.5282 71.2947 72.3801C71.4424 72.2321 71.6427 72.1489 71.8516 72.1488H73.9234C74.1323 72.1489 74.3326 72.2321 74.4803 72.3801C74.628 72.5282 74.711 72.7289 74.7111 72.9383V90.1999ZM69.4805 90.9459C68.499 91.1886 67.5338 91.1457 67.5338 91.1457C63.0586 91.1457 63.2792 86.9155 63.2792 86.9155V72.9383C63.2792 72.7289 63.3623 72.5282 63.51 72.3801C63.6577 72.2321 63.858 72.1489 64.0669 72.1488H66.1386C66.3475 72.1489 66.5478 72.2321 66.6955 72.3801C66.8432 72.5282 66.9262 72.7289 66.9263 72.9383V85.9582C66.8978 88.3574 68.599 88.5151 69.5034 88.4302C69.5034 88.4302 70.0522 88.3066 70.0522 88.8249V90.2111C70.0515 90.2111 70.1057 90.814 69.4805 90.9459Z" fill="#8C8C8C"/>
<path d="M47.9705 85.2226H38.6909C38.7948 87.5943 39.9374 88.4945 41.9894 88.4945C43.3116 88.4945 44.3477 87.7262 44.7908 87.0011C44.9565 86.7306 45.2215 86.7293 45.2215 86.7293H47.6677C47.6677 86.7293 48.2064 86.6833 47.998 87.1515C46.906 90.0641 44.7617 91.3142 41.8595 91.3142C37.6257 91.3142 35.0024 88.3626 35.0024 84.1463C35.0024 80.0619 37.7813 76.9523 41.8595 76.9523C46.2107 76.9523 48.5387 80.1855 48.5387 84.619C48.5391 84.6194 48.5773 85.2226 47.9705 85.2226ZM44.9576 82.6707C44.62 80.7738 43.5478 79.772 41.7556 79.772C39.4182 79.772 38.7427 81.6166 38.6909 82.6707H44.9576ZM89.1272 85.2226H79.8479C79.9518 87.5943 81.0948 88.4945 83.1467 88.4945C84.4683 88.4945 85.5047 87.7262 85.9482 87.0011C86.1139 86.7306 86.3782 86.7293 86.3782 86.7293H88.8243C88.8243 86.7293 89.3637 86.6833 89.1546 87.1515C88.063 90.0641 85.919 91.3142 83.0162 91.3142C78.7827 91.3142 76.1594 88.3626 76.1594 84.1463C76.1594 80.0619 78.9387 76.9523 83.0162 76.9523C87.3677 76.9523 89.6957 80.1855 89.6957 84.619C89.6964 84.6194 89.7343 85.2226 89.1272 85.2226ZM86.1146 82.6707C85.7766 80.7738 84.7048 79.772 82.9127 79.772C80.5752 79.772 79.8993 81.6166 79.8479 82.6707H86.1146ZM52.7979 86.9844C53.0556 88.2289 54.2761 88.624 55.5806 88.624C56.6972 88.624 57.8701 88.3671 57.8701 87.0652C57.8701 85.9457 56.4631 85.7824 53.8141 85.2101C51.6844 84.7412 49.5543 83.7592 49.5543 81.39C49.5543 77.9538 52.5152 77.0686 55.3989 77.0686C58.149 77.0686 60.6941 77.9374 61.2387 80.7686L61.2488 80.8111C61.3735 81.4095 60.7306 81.3858 60.7306 81.3858L58.4254 81.4718C57.8461 81.5017 57.7336 81.0189 57.7336 81.0189C57.4418 79.9742 56.4582 79.6724 55.2944 79.6724C54.4633 79.6724 53.2431 79.8284 53.2431 80.9221C53.2431 82.2495 55.3208 82.4319 57.4245 82.9265C59.5803 83.4212 61.5694 84.2257 61.5694 86.7247C61.5694 90.2653 58.6192 91.2564 55.5545 91.2564C52.5975 91.2564 49.7109 90.2023 49.2893 87.0492C49.2893 87.0492 49.1802 86.5187 49.8054 86.5187H52.0772C52.7534 86.5187 52.7979 86.9844 52.7979 86.9844ZM89.3519 74.6398V72.2048C89.3519 71.9778 89.172 71.8111 88.9532 71.8341L77.2667 73.0493C77.0475 73.0719 76.868 73.2763 76.868 73.5036V74.6858C76.868 74.9124 77.0486 75.099 77.2688 75.0997H88.8875C88.8872 75.0993 89.3519 75.179 89.3519 74.6398ZM70.1179 79.4803C70.1178 79.6504 70.0502 79.8136 69.9301 79.9339C69.8101 80.0542 69.6472 80.1218 69.4774 80.1218H62.4206C62.3366 80.1218 62.2534 80.1052 62.1757 80.073C62.0981 80.0407 62.0275 79.9935 61.9681 79.9339C61.9087 79.8743 61.8616 79.8036 61.8295 79.7257C61.7973 79.6479 61.7808 79.5645 61.7809 79.4803V78.1084C61.7809 77.754 62.0671 77.4668 62.4206 77.4668H69.4774C69.831 77.4668 70.1179 77.754 70.1179 78.1084V79.4803ZM86.59 63.7437L84.0314 56.8602L82.442 55.5642L85.1622 63.4471C85.1622 63.4471 85.8357 64.9857 84.8931 64.9857H83.9237C83.9237 64.9857 83.2311 65.0487 83.0342 64.4458L81.0149 58.6147C80.7892 58.0319 80.6836 58.4239 80.6836 58.4239C80.6725 58.5409 80.6589 58.6032 80.7451 59.1003L81.9037 64.5805C81.9037 64.5805 82.0319 65.2823 81.3914 65.7951L80.6912 66.4161C80.6912 66.4161 80.0021 66.9626 79.7753 66.2271L77.0822 54.538C77.0822 54.538 76.7856 53.431 76.57 53.998L78.4479 65.5138C78.6413 67.027 78.7772 67.6989 78.8511 67.9857L78.8591 68.0365C78.8591 68.0365 79.0939 69.0805 80.1939 68.7258C80.5084 68.6421 80.799 68.4857 81.0424 68.2691C81.051 68.2625 81.059 68.2586 81.0677 68.252L82.9529 66.389L86.374 66.2539C86.3744 66.2542 87.6139 66.3618 86.59 63.7437ZM47.0842 46.1374C43.8295 47.7989 41.8237 48.2146 40.6803 48.2114C40.0864 48.2107 39.7259 48.1046 39.5158 48.0088C39.3008 47.8884 39.2678 47.6868 39.2821 47.5305C39.3296 47.2305 39.5443 46.8611 39.934 46.4768C40.6008 45.8099 41.698 45.1752 42.6156 44.7359C43.0009 44.5504 43.3919 44.3771 43.7881 44.2162C44.0872 44.0958 44.2622 44.0348 44.2622 44.0341L43.8566 42.8857C43.8378 42.8931 42.4663 43.378 41.0617 44.1748C40.3594 44.5737 39.6464 45.0499 39.0782 45.6118C38.5426 46.1465 38.1057 46.7887 38.063 47.5671C38.0616 47.5751 38.0592 47.58 38.0578 47.5887C38.0578 47.5887 37.922 48.7145 38.9629 49.1176C39.323 49.2826 39.8537 49.4197 40.6314 49.4305H40.68C42.1109 49.4281 44.2754 48.9345 47.6347 47.2232L47.0842 46.1374ZM33.3426 59.0045C33.3325 58.9471 33.3673 58.2077 32.7341 57.3475C32.2458 56.6371 31.3334 55.8542 29.8489 55.5684L29.0018 56.5392C29.992 56.7373 31.0295 57.2281 31.5199 57.7482L31.5202 57.7489C31.5202 57.7489 31.6039 57.8356 31.7092 57.9964C31.7185 58.0128 31.73 58.0291 31.738 58.0455L31.7422 58.0521C31.9923 58.4554 32.1249 58.9209 32.1249 59.3958L32.1252 59.3972L32.0773 62.2896L33.2922 61.9802V61.9795L33.352 59.0599L33.3426 59.0045Z" fill="#8C8C8C"/>
</svg>
