<svg width="108" height="108" viewBox="0 0 108 108" fill="none" xmlns="http://www.w3.org/2000/svg">
<path fill-rule="evenodd" clip-rule="evenodd" d="M82.5358 28.7231C86.1969 32.4151 89.0585 36.6616 91.0893 41.4615C93.2125 46.4154 94.2584 51.6153 94.2584 57.0001C94.2584 59.6458 93.9814 62.292 93.458 65.0307L81.1815 73.9222L79.2737 89.0913H58.9042L57.7968 89.8293C56.7819 90.6296 55.6126 90.9981 54.2892 90.9981C52.9354 90.9981 51.797 90.6296 50.7507 89.8293L49.5508 89.0913H29.3973L27.459 73.9222L15.121 65.0307C14.567 62.292 14.321 59.6463 14.321 57.0001C14.321 51.6153 15.3669 46.4154 17.4592 41.4615C19.4899 36.6616 22.3211 32.4151 26.0131 28.7231C29.6742 25.0615 33.9512 22.1999 38.7206 20.1691C43.7055 18.0464 48.8744 17 54.2897 17C59.6741 17 64.8744 18.0464 69.8584 20.1691C74.6278 22.1999 78.8738 25.0615 82.5358 28.7231ZM79.9816 37.4C82.6588 39.7383 84.3816 42.6309 85.1819 46.0155L64.3214 71.7989L85.7978 50.1075C86.7513 52.3232 87.2747 54.6309 87.2747 57.0002C87.2747 58.323 87.0897 59.7379 86.7513 61.2462L74.6597 70.1076L73.1514 82.0147H58.3517L56.1364 83.6145C55.6135 84.0145 54.9671 84.1999 54.2902 84.2299C53.5827 84.1994 52.9673 84.0145 52.3824 83.6145L50.2902 82.0147H35.5519L33.9517 70.1076L21.8286 61.2462C21.4597 59.7379 21.3057 58.323 21.3057 57.0002C21.3057 54.6309 21.7976 52.3232 22.7825 50.1075L44.3824 71.7999L23.3979 46.016C24.1978 42.6314 25.9211 39.7387 28.5978 37.4005L47.4285 69.6771L30.752 34.2929C32.9058 31.3697 35.7669 29.37 39.3055 28.2311L50.6896 68.3533L42.3821 26.5999C44.9668 25.1536 47.767 24.4151 50.7206 24.4151L52.5669 24.5381L54.3207 67.9834L55.982 24.5381L57.8588 24.4151C60.8129 24.4151 63.5821 25.1536 66.1977 26.5999L57.7973 68.3533L69.2744 28.2307C72.8125 29.3695 75.6126 31.3693 77.8279 34.2924L61.2438 69.6766L79.9816 37.4Z" fill="#8C8C8C"/>
</svg>
