<svg width="108" height="108" viewBox="0 0 108 108" fill="none" xmlns="http://www.w3.org/2000/svg">
<path d="M16.7047 61.7323C14.9444 61.7323 13.5176 62.7311 12.8283 63.4445C12.8283 63.4445 11.1625 65.1102 10.0211 65.6809C9.97296 65.705 9.97296 65.7531 10.0452 65.7531H20.2974C22.319 65.7531 23.2713 65.0638 24.4832 63.9928C24.4832 63.9928 26.2435 62.3752 27.4331 61.8286C27.5517 61.7804 27.5276 61.71 27.4331 61.71H16.7064V61.7323H16.7047ZM34.3298 61.7323C32.5695 61.7323 31.1427 62.7311 30.4534 63.4445C30.4534 63.4445 28.7877 65.1102 27.6462 65.6809C27.5981 65.705 27.5981 65.7531 27.6703 65.7531H37.9449C39.9665 65.7531 40.9188 65.0638 42.1307 63.9928C42.1307 63.9928 43.8669 62.3752 45.0565 61.8286C45.1751 61.7804 45.1751 61.71 45.0806 61.71H34.3298V61.7323ZM51.9549 61.7323C50.1946 61.7323 48.7679 62.7311 48.0785 63.4445C48.0785 63.4445 46.4128 65.1102 45.2714 65.6809C45.2232 65.705 45.2232 65.7531 45.2954 65.7531H55.57C57.5916 65.7531 58.5199 65.0638 59.7318 63.9928C59.7318 63.9928 61.4921 62.3752 62.6816 61.8286C62.8002 61.7804 62.8002 61.71 62.7057 61.71H51.9549V61.7323ZM69.556 61.7323C67.7957 61.7323 66.393 62.7311 65.7019 63.4445C65.7019 63.4445 64.0139 65.1102 62.8707 65.6809C62.8226 65.705 62.8226 65.7531 62.8948 65.7531H73.1694C75.1909 65.7531 76.1433 65.0638 77.3552 63.9928C77.3552 63.9928 79.1155 62.3752 80.305 61.8286C80.4236 61.7804 80.3996 61.71 80.305 61.71H69.556V61.7323ZM87.1811 61.7323C85.4208 61.7323 83.9941 62.7311 83.3047 63.4445C83.3047 63.4445 81.639 65.1102 80.4976 65.6809C80.4494 65.705 80.4494 65.7531 80.5216 65.7531H90.7962C92.8178 65.7531 93.7701 65.0638 94.982 63.9928C94.982 63.9928 96.7183 62.3752 97.9078 61.8286C98.0264 61.7804 98.0264 61.71 97.9319 61.71H87.1811V61.7323Z" fill="#8C8C8C" stroke="#8C8C8C" stroke-width="0.0787" stroke-miterlimit="11.474"/>
<path d="M52.5979 42.228C48.8401 42.228 45.201 43.3454 45.201 47.0568C45.201 53.5031 56.452 50.1011 56.452 54.0497C56.452 55.3338 54.4545 55.8582 52.8369 55.8582C49.9352 55.8582 47.9377 55.4301 45.4158 53.9071V57.1423C47.2947 57.7611 49.863 58.0705 52.6461 58.0705C56.5224 58.0705 60.1616 57.0718 60.1616 53.2418C60.1616 46.5101 48.9106 49.5304 48.9106 46.2248C48.9106 44.8925 50.719 44.4404 52.2885 44.4404C54.953 44.4404 57.8066 45.226 59.376 46.6769V43.2285C57.3545 42.6079 54.6659 42.228 52.5979 42.228ZM72.4818 42.2744C65.7261 42.2744 61.2549 45.5337 61.2549 50.4811C61.2549 55.0244 65.3703 58.0688 71.5072 58.0688C73.5047 58.0688 75.2649 57.8075 77.3587 57.3073V53.4773C75.8838 55.0227 74.1476 55.6416 72.2687 55.6416C68.6295 55.6416 66.1558 53.3828 66.1558 50.1235C66.1558 46.9124 68.7241 44.5573 72.3168 44.5573C74.2679 44.5573 75.8374 45.2707 77.1215 46.5084V42.6784C75.7875 42.4171 74.1476 42.2744 72.4818 42.2744ZM88.2281 42.2744C82.4006 42.2744 78.2853 45.6283 78.2853 50.3624C78.2853 55.0004 81.9726 58.0688 87.4906 58.0688C93.3422 58.0688 97.3613 54.8095 97.3613 50.053C97.3853 45.391 93.7221 42.2744 88.2281 42.2744ZM10.616 42.7506V46.3898C11.876 45.4151 14.5405 45.0335 17.4181 45.0094V54.9041C17.4181 56.3549 17.2995 56.7589 16.6807 57.4964H22.3895C21.7466 56.7349 21.6521 56.3309 21.6521 54.9041V44.9149C24.1498 44.9389 27.1461 45.391 28.4078 46.3657V42.7265L10.616 42.7506ZM29.9532 42.7506C30.548 43.5121 30.6666 43.9402 30.6666 45.367V54.9058C30.6666 56.3567 30.548 56.7847 30.0014 57.4981H43.8206V53.9071C41.9176 55.2634 38.3266 55.2634 36.8517 55.2393H34.8542V51.124H36.3291C37.3278 51.124 39.1363 51.2426 40.1831 51.552V48.4835C39.1603 48.817 37.3296 48.9116 36.3291 48.9116H34.8542V44.9871H36.8517C38.636 44.9871 41.775 45.367 42.9405 46.3434V42.7283L29.9532 42.7506ZM87.8482 44.5109C90.8926 44.5109 92.9141 47.0327 92.9141 50.1476C92.9141 53.2624 90.8926 55.7842 87.8482 55.7842C84.7557 55.7842 82.7582 53.2624 82.7582 50.1476C82.7582 47.0327 84.7557 44.5109 87.8482 44.5109Z" fill="#8C8C8C" stroke="#8C8C8C" stroke-width="0.03" stroke-miterlimit="3.864"/>
</svg>
