<svg width="108" height="108" viewBox="0 0 108 108" fill="none" xmlns="http://www.w3.org/2000/svg">
<path d="M44.7248 85.6669C40.9797 85.0902 37.8238 84.0989 34.3398 82.4061C28.5212 79.5784 23.6361 75.2825 19.9438 69.7473C15.5033 63.0921 13.3731 54.6122 14.1611 46.7272C15.408 34.2467 22.7554 23.4885 33.8921 17.838C37.4991 16.0077 40.9944 14.8941 45.0595 14.2806C47.5369 13.9068 52.4605 13.9063 54.9419 14.2801C66.6275 16.0389 76.4125 22.9664 81.9024 33.366C86.5165 42.1065 87.2703 52.5 83.9785 62.0028C83.2689 64.0517 81.3625 67.8585 80.0818 69.7824C74.3035 78.4683 65.3524 84.1752 55.1492 85.6786C52.2116 86.1114 47.5741 86.1066 44.7244 85.6673L44.7248 85.6669ZM53.3256 80.9604C54.2396 80.8606 55.6181 80.6529 56.3888 80.499C57.6721 80.2423 57.7938 80.1833 57.8358 79.7996C57.8834 79.3633 49.9628 58.5781 49.7493 58.5781C49.5588 58.5781 41.6096 79.3451 41.6625 79.7055C41.7187 80.0914 43.1852 80.512 45.4691 80.796C46.2571 80.8944 47.0909 81.002 47.3209 81.0354C48.2725 81.1728 51.776 81.129 53.3256 80.9604ZM66.0534 76.6541C68.723 74.9707 69.6279 74.2431 71.9439 71.9189C74.5083 69.3462 75.9929 67.3546 77.4615 64.5191C79.2358 61.0935 80.1953 58.1696 80.7399 54.5285C81.0906 52.1852 81.0937 47.9331 80.7464 45.4979C80.3485 42.7032 79.2657 38.8418 78.9669 39.1522C78.8462 39.2776 64.2389 77.3426 64.2389 77.5313C64.2389 77.742 64.6186 77.5586 66.0534 76.6541ZM35.139 76.9892C30.1491 63.8193 20.8681 39.8512 20.7573 39.8495C20.5438 39.8452 19.9156 41.9678 19.5095 44.0652C18.5271 49.1329 18.8774 54.8012 20.4763 59.7211C21.2556 62.119 23.2148 66.0147 24.6652 68.051C26.8495 71.1158 30.1751 74.2453 33.4518 76.3184C35.0918 77.3561 35.3109 77.4432 35.139 76.9892ZM41.2789 58.0573L43.6008 52.0356H55.9264L58.2687 58.1167C59.5568 61.4612 60.663 64.1978 60.7267 64.1978C60.7903 64.1978 63.502 57.2716 66.7522 48.806C70.002 40.3404 72.9492 32.6709 73.3016 31.7616L73.942 30.1095L72.2309 28.3442C71.2901 27.3733 69.9172 26.1067 69.1803 25.53C67.4917 24.2075 65.7027 23.0714 65.5564 23.2283C65.4944 23.2947 63.4275 28.9175 60.9626 35.7227L56.481 48.0974L50.1013 48.0536L43.7216 48.0094L39.2478 35.6794C36.7873 28.8975 34.742 23.2734 34.703 23.1815C34.6623 23.0861 34.3155 23.1859 33.8994 23.4131C32.2321 24.3219 30.3517 25.8327 28.096 28.0741L25.7052 30.4503L26.1074 31.5127C27.5349 35.2852 38.6668 64.1445 38.7443 64.2737C38.8019 64.37 38.8629 64.363 38.8984 64.2564C38.9309 64.1592 40.0025 61.3697 41.2789 58.0577V58.0573ZM54.1733 30.7408C56.9677 22.9964 57.9873 19.9801 57.8414 19.8895C57.1898 19.4862 52.5865 18.9095 50.0009 18.9073C47.4984 18.9051 43.0895 19.4693 42.3565 19.8856C42.1863 19.9818 43.7498 24.4403 49.3549 39.8421C49.735 40.8863 50.1039 41.679 50.1749 41.6035C50.2455 41.5281 52.0453 36.6398 54.1733 30.7408Z" fill="#8C8C8C"/>
</svg>
