<svg xmlns="http://www.w3.org/2000/svg" width="78" height="13" viewBox="0 0 78 13" fill="none">
  <g clip-path="url(#clip0_322_1675)">
    <path d="M6.81986 4.2998V6.52437L2.57666 8.05553L6.81986 9.58669V11.8113L0 8.99483V7.11696L6.81986 4.2998Z" fill="#1B22F6"/>
    <path d="M15.5339 11.8151H12.9573L10.5328 8.62297V11.8151H8.25977V1.7041H10.5328V7.75621L12.8058 4.59307H15.4578L12.6993 8.20446L15.5339 11.8151Z" fill="#1B22F6"/>
    <path d="M21.413 4.59324H23.686V11.8153H21.413V11.1364C20.8773 11.7239 20.1247 12.0177 19.1552 12.0177C18.1553 12.0177 17.3015 11.6492 16.5938 10.913C15.8868 10.1761 15.533 9.27376 15.533 8.20463C15.533 7.1355 15.8868 6.2332 16.5938 5.49627C17.3007 4.75934 18.1545 4.3916 19.1552 4.3916C20.1254 4.3916 20.8773 4.68536 21.413 5.27287V4.59324ZM18.3067 9.48991C18.64 9.8076 19.0745 9.96645 19.6103 9.96645C20.1452 9.96645 20.5805 9.8076 20.9138 9.48991C21.2471 9.17221 21.4138 8.74355 21.4138 8.20463C21.4138 7.66572 21.2471 7.23705 20.9138 6.91936C20.5805 6.60167 20.146 6.44282 19.6103 6.44282C19.0745 6.44282 18.64 6.60167 18.3067 6.91936C17.9734 7.23705 17.8068 7.66572 17.8068 8.20463C17.8068 8.74355 17.9734 9.17221 18.3067 9.48991Z" fill="#1B22F6"/>
    <path d="M29.7938 4.3916C30.602 4.3916 31.2762 4.65635 31.8172 5.18583C32.3575 5.71532 32.6277 6.44717 32.6277 7.38139V11.816H30.3546V7.69908C30.3546 7.2755 30.2306 6.95055 29.9833 6.72425C29.736 6.49795 29.4202 6.3848 29.0359 6.3848C28.6014 6.3848 28.2582 6.51028 28.0055 6.76051C27.7529 7.01075 27.6265 7.38139 27.6265 7.87244V11.816H25.3535V4.59397H27.6265V5.27287C28.0816 4.68536 28.8038 4.3916 29.7938 4.3916Z" fill="#1B22F6"/>
    <path d="M38.6286 6.67373H37.0678V9.2305C37.0678 9.51917 37.1888 9.70268 37.4316 9.77957C37.6743 9.85645 38.0731 9.88039 38.6293 9.8521V11.8163C37.1842 11.9606 36.1843 11.8286 35.6288 11.4188C35.0733 11.0097 34.7955 10.28 34.7955 9.2305V6.67373H33.5818V4.59349H34.794V3.22118L37.0671 2.57129V4.59349H38.6278V6.67373H38.6286Z" fill="#1B22F6"/>
    <path d="M46.2515 10.913C45.4738 11.6499 44.5241 12.0177 43.4024 12.0177C42.2807 12.0177 41.331 11.6492 40.5533 10.913C39.7748 10.1761 39.386 9.27376 39.386 8.20463C39.386 7.1355 39.7748 6.2332 40.5533 5.49627C41.331 4.75934 42.2807 4.3916 43.4024 4.3916C44.5241 4.3916 45.473 4.76007 46.2515 5.49627C47.0292 6.2332 47.4188 7.1355 47.4188 8.20463C47.4188 9.27376 47.0292 10.1761 46.2515 10.913ZM42.1597 9.43188C42.4931 9.74957 42.907 9.90842 43.4024 9.90842C43.897 9.90842 44.3118 9.74957 44.6451 9.43188C44.9784 9.11419 45.1451 8.70511 45.1451 8.20391C45.1451 7.70343 44.9784 7.29363 44.6451 6.97593C44.3118 6.65824 43.897 6.49939 43.4024 6.49939C42.907 6.49939 42.4931 6.65824 42.1597 6.97593C41.8264 7.29363 41.6598 7.70343 41.6598 8.20391C41.6598 8.70511 41.8264 9.11419 42.1597 9.43188Z" fill="#1B22F6"/>
    <path d="M50.9791 5.87956C51.1206 5.41753 51.406 5.06357 51.8352 4.81768C52.2644 4.5718 52.7369 4.44922 53.2521 4.44922V6.90517C52.6966 6.81813 52.1784 6.90734 51.699 7.17209C51.2188 7.43683 50.9791 7.89669 50.9791 8.55166V11.8163H48.7061V4.59428H50.9791V5.87956Z" fill="#1B22F6"/>
    <path d="M59.5873 4.59324H61.8604V11.8153H59.5873V11.1364C59.0516 11.7239 58.299 12.0177 57.3295 12.0177C56.3296 12.0177 55.475 11.6492 54.7681 10.913C54.0611 10.1761 53.7073 9.27376 53.7073 8.20463C53.7073 7.1355 54.0611 6.2332 54.7681 5.49627C55.475 4.75934 56.3288 4.3916 57.3295 4.3916C58.299 4.3916 59.0516 4.68536 59.5873 5.27287V4.59324ZM56.481 9.48991C56.8143 9.8076 57.2489 9.96645 57.7846 9.96645C58.3203 9.96645 58.7548 9.8076 59.0881 9.48991C59.4214 9.17221 59.5881 8.74355 59.5881 8.20463C59.5881 7.66572 59.4214 7.23705 59.0881 6.91936C58.7548 6.60167 58.3203 6.44282 57.7846 6.44282C57.2489 6.44282 56.8151 6.60167 56.481 6.91936C56.147 7.23705 55.9811 7.66572 55.9811 8.20463C55.9803 8.74355 56.147 9.17221 56.481 9.48991Z" fill="#1B22F6"/>
    <path d="M65.3333 13H62.9438L69.0058 0H71.3952L65.3333 13Z" fill="#1B22F6"/>
    <path d="M71.1802 4.2998L78 7.11696V8.99483L71.1802 11.8113V9.58669L75.4234 8.05553L71.1802 6.52437V4.2998Z" fill="#1B22F6"/>
  </g>
  <defs>
    <clipPath id="clip0_322_1675">
      <rect width="78" height="13" fill="white"/>
    </clipPath>
  </defs>
</svg>