<svg xmlns="http://www.w3.org/2000/svg" width="142" height="56" viewBox="0 0 142 56" fill="none">
  <g clip-path="url(#clip0_303_378)">
    <path d="M48.7462 24.8078V12.7476C48.7462 12.3781 49.0386 12.0813 49.4028 12.0813H54.418C55.8911 12.0813 57.0718 12.3949 57.9546 13.0275C58.8374 13.6602 59.2788 14.5057 59.2788 15.5639C59.2788 16.7509 58.7712 17.6411 57.7505 18.2178C57.3201 18.4641 57.3036 19.08 57.7118 19.3544C57.9877 19.5391 58.1918 19.7351 58.3243 19.9367C58.6112 20.3734 58.8043 21.2244 58.9091 22.4898C58.9808 23.3744 59.0967 24.0855 59.2567 24.6174C59.3836 25.0429 59.0636 25.4741 58.6277 25.4741H55.9629C55.676 25.4741 55.4166 25.2837 55.3339 25.0037C55.1794 24.4718 55.1022 23.856 55.1022 23.1505L55.0801 22.3554L55.058 21.3532C55.058 19.8079 54.4456 19.0352 53.2208 19.0352C52.8566 19.0352 52.5642 19.332 52.5642 19.7015V24.8022C52.5642 25.1717 52.2718 25.4685 51.9076 25.4685H49.3917C49.0386 25.4741 48.7462 25.1773 48.7462 24.8078ZM52.5752 17.2604C52.5752 17.6299 52.8676 17.9266 53.2318 17.9266H53.3477C54.7987 17.9266 55.5215 17.1596 55.5215 15.6199C55.5215 14.0801 54.7987 13.3131 53.3477 13.3131H53.2318C52.8676 13.3131 52.5752 13.6098 52.5752 13.9794V17.2604Z" fill="#64B500"/>
    <path d="M67.3948 12.6132L70.6665 24.5502C70.7934 25.0149 70.4513 25.4741 69.9769 25.4741H67.621C67.2954 25.4741 67.0141 25.2557 66.9258 24.9366L66.4292 23.1057C66.3465 22.7866 66.0596 22.5682 65.734 22.5682H62.843C62.523 22.5682 62.2416 22.781 62.1533 23.0889L61.6126 24.9478C61.5243 25.2557 61.243 25.4685 60.923 25.4685C60.443 25.4685 60.1009 24.9982 60.2333 24.5334L63.7147 12.5964C63.803 12.2885 64.0844 12.0757 64.4044 12.0757H66.6885C67.0251 12.0813 67.3065 12.2997 67.3948 12.6132ZM63.6485 21.2244H65.0002C65.4692 21.2244 65.8168 20.7709 65.6954 20.3062L65.0444 17.8315C64.8568 17.1148 63.8637 17.1092 63.6595 17.8147L62.9588 20.2894C62.8264 20.7597 63.1685 21.2244 63.6485 21.2244Z" fill="white"/>
    <path d="M75.7976 14.0241V23.5312C75.7976 24.6062 74.9425 25.4741 73.8831 25.4741C72.8238 25.4741 71.9686 24.6062 71.9686 23.5312V14.0241C71.9686 12.9491 72.8238 12.0813 73.8831 12.0813C74.9369 12.0813 75.7976 12.9547 75.7976 14.0241Z" fill="white"/>
    <path d="M81.9162 12.7532V23.4584C81.9162 23.828 82.2141 24.1303 82.5782 24.1303H86.6776C87.0417 24.1303 87.3397 24.4326 87.3397 24.8022C87.3397 25.1717 87.0417 25.4741 86.6776 25.4741H78.7492C78.3851 25.4741 78.0872 25.1717 78.0872 24.8022V12.7532C78.0872 12.3837 78.3851 12.0813 78.7492 12.0813H81.2541C81.6182 12.0813 81.9162 12.3837 81.9162 12.7532Z" fill="white"/>
    <path d="M97.6903 20.3118L98.1317 20.4294C98.3689 20.491 98.5399 20.7037 98.551 20.9557C98.5565 21.1237 98.562 21.2804 98.562 21.4204C98.562 22.7194 98.0986 23.7608 97.1717 24.539C96.2447 25.3173 94.9978 25.7092 93.442 25.7092C89.5302 25.7092 87.5715 23.4752 87.5715 19.0072C87.5715 16.8852 88.1398 15.1719 89.2819 13.8506C90.424 12.5348 91.9081 11.8742 93.7399 11.8742C96.4599 11.8742 97.8834 13.1395 98.0158 15.6647C98.0268 15.8942 97.8944 16.1126 97.6903 16.2078L97.2103 16.4317C96.8351 16.6053 96.4158 16.3253 96.4158 15.911V15.9054C96.4158 13.929 95.6378 12.9436 94.0764 12.9436C92.4268 12.9436 91.5992 15.0376 91.5992 19.2312C91.5992 22.8369 92.5206 24.6342 94.3633 24.6342C95.1247 24.6342 95.7592 24.3263 96.2613 23.7104C96.7689 23.0945 97.0227 22.3274 97.0227 21.4036C97.0227 21.2692 97.0117 21.1069 96.9951 20.9165C96.9565 20.519 97.3151 20.211 97.6903 20.3118Z" fill="white"/>
    <path d="M105.409 11.8462C109.249 11.8462 111.169 14.1529 111.169 18.7721C111.169 23.3912 109.21 25.698 105.299 25.698C101.387 25.698 99.4282 23.3352 99.4282 18.6153C99.4337 14.1025 101.425 11.8462 105.409 11.8462ZM105.299 12.9156C104.576 12.9156 104.09 13.3187 103.837 14.1249C103.583 14.9312 103.456 16.4821 103.456 18.7721C103.456 21.0621 103.583 22.6074 103.837 23.4192C104.09 24.2255 104.581 24.6286 105.299 24.6286C106.021 24.6286 106.507 24.2255 106.761 23.4192C107.015 22.613 107.141 21.0621 107.141 18.7721C107.141 16.4877 107.015 14.9424 106.761 14.1305C106.512 13.3243 106.021 12.9156 105.299 12.9156Z" fill="white"/>
    <path d="M122.507 12.7364V24.8246C122.507 25.1829 122.22 25.4797 121.862 25.4797H119.925C119.71 25.4797 119.506 25.3677 119.39 25.1885L115.252 18.8169C114.899 18.2794 114.071 18.5313 114.071 19.1752V24.8246C114.071 25.1829 113.784 25.4797 113.426 25.4797C113.072 25.4797 112.78 25.1885 112.78 24.8246V12.7364C112.78 12.378 113.067 12.0813 113.426 12.0813H114.866C115.081 12.0813 115.279 12.1877 115.401 12.3725L120.046 19.444C120.399 19.9815 121.222 19.7295 121.222 19.08V12.7364C121.222 12.378 121.508 12.0813 121.867 12.0813C122.22 12.0813 122.507 12.3725 122.507 12.7364Z" fill="white"/>
    <path d="M52.5752 38.8724V42.3662C52.5752 43.2396 51.8745 43.9507 51.0138 43.9507H50.3076C49.4469 43.9507 48.7462 43.2396 48.7462 42.3662V32.1424C48.7462 31.269 49.4469 30.5579 50.3076 30.5579H51.0138C51.8745 30.5579 52.5752 31.269 52.5752 32.1424V34.3596C52.5752 35.2331 53.2759 35.9441 54.1366 35.9441C54.9973 35.9441 55.698 35.2331 55.698 34.3596V32.1424C55.698 31.269 56.3987 30.5579 57.2594 30.5579H57.9656C58.8263 30.5579 59.527 31.269 59.527 32.1424V42.3662C59.527 43.2396 58.8263 43.9507 57.9656 43.9507H57.2594C56.3987 43.9507 55.698 43.2396 55.698 42.3662V38.8724C55.698 37.999 54.9973 37.2879 54.1366 37.2879C53.2759 37.2879 52.5752 37.999 52.5752 38.8724Z" fill="#64B500"/>
    <path d="M67.1906 30.3228C71.0306 30.3228 72.9507 32.6296 72.9507 37.2487C72.9507 41.8679 70.992 44.1746 67.0803 44.1746C63.1685 44.1746 61.2098 41.8119 61.2098 37.0919C61.2154 32.5792 63.2071 30.3228 67.1906 30.3228ZM67.0858 31.3922C66.363 31.3922 65.8775 31.7953 65.6237 32.6016C65.3699 33.4078 65.243 34.9587 65.243 37.2487C65.243 39.5387 65.3699 41.084 65.6237 41.8959C65.8775 42.7021 66.3685 43.1052 67.0858 43.1052C67.8085 43.1052 68.2941 42.7021 68.5479 41.8959C68.8017 41.0896 68.9286 39.5387 68.9286 37.2487C68.9286 34.9643 68.8017 33.419 68.5479 32.6072C68.2941 31.7953 67.8085 31.3922 67.0858 31.3922Z" fill="white"/>
    <path d="M83.908 31.2298C83.908 31.5993 83.6101 31.9017 83.2459 31.9017H81.3314C80.9673 31.9017 80.6693 32.204 80.6693 32.5736V43.2788C80.6693 43.6483 80.3714 43.9507 80.0073 43.9507H77.2707C76.9065 43.9507 76.6086 43.6483 76.6086 43.2788V32.5736C76.6086 32.204 76.3107 31.9017 75.9465 31.9017H74.0155C73.6513 31.9017 73.3534 31.5993 73.3534 31.2298C73.3534 30.8603 73.6513 30.5579 74.0155 30.5579H83.2459C83.6101 30.5579 83.908 30.8603 83.908 31.2298Z" fill="white"/>
    <path d="M92.9233 34.4156L92.6971 34.4604C92.2613 34.5444 91.864 34.1973 91.864 33.7438V33.7382C91.864 32.1816 90.9316 31.4034 89.0723 31.4034C87.6046 31.4034 86.8653 31.9409 86.8653 33.0103C86.8653 33.8165 87.6874 34.5052 89.3316 35.0819C92.504 36.1849 94.0875 37.8198 94.0875 39.9866C94.0875 41.2576 93.6406 42.2766 92.7523 43.0436C91.864 43.8107 90.6778 44.197 89.2047 44.197C85.9384 44.197 84.3053 42.9093 84.3053 40.3393C84.3053 40.2666 84.3053 40.1938 84.3108 40.1098C84.3274 39.7906 84.5536 39.5219 84.8625 39.4491L85.166 39.3819C85.6405 39.2755 86.0653 39.6731 86.0157 40.1602C85.9991 40.3281 85.9881 40.4849 85.9881 40.6305C85.9881 42.2934 86.926 43.122 88.8019 43.122C90.3026 43.122 91.053 42.5229 91.053 41.3248C91.053 40.4345 90.1536 39.6563 88.355 38.9788C85.7564 38.0102 84.4598 36.4649 84.4598 34.3372C84.4598 33.1335 84.8957 32.1648 85.7619 31.4258C86.6281 30.6923 87.7702 30.3228 89.1771 30.3228C91.8199 30.3228 93.2599 31.4202 93.4916 33.6206C93.5302 34.0069 93.2875 34.3484 92.9233 34.4156Z" fill="white"/>
    <path d="M109.724 34.4156L109.497 34.4604C109.061 34.5444 108.664 34.1973 108.664 33.7438V33.7382C108.664 32.1816 107.732 31.4034 105.872 31.4034C104.405 31.4034 103.666 31.9409 103.666 33.0103C103.666 33.8165 104.488 34.5052 106.132 35.0819C109.304 36.1849 110.888 37.8198 110.888 39.9866C110.888 41.2576 110.441 42.2766 109.552 43.0436C108.664 43.8107 107.478 44.197 106.005 44.197C102.739 44.197 101.105 42.9093 101.105 40.3393C101.105 40.2666 101.105 40.1938 101.111 40.1098C101.128 39.7906 101.354 39.5219 101.663 39.4491L101.966 39.3819C102.441 39.2755 102.865 39.6731 102.816 40.1602C102.799 40.3281 102.788 40.4849 102.788 40.6305C102.788 42.2934 103.726 43.122 105.602 43.122C107.103 43.122 107.853 42.5229 107.853 41.3248C107.853 40.4345 106.954 39.6563 105.155 38.9788C102.557 38.0102 101.26 36.4649 101.26 34.3372C101.26 33.1335 101.696 32.1648 102.562 31.4258C103.428 30.6923 104.57 30.3228 105.977 30.3228C108.62 30.3228 110.06 31.4202 110.292 33.6206C110.336 34.0069 110.088 34.3484 109.724 34.4156Z" fill="white"/>
    <path d="M112.57 43.0772V31.4314C112.57 30.9499 112.957 30.5579 113.431 30.5579H118.264C121.492 30.5579 123.108 31.8681 123.108 34.494C123.108 37.1423 121.315 38.4693 117.724 38.4693H117.26C116.786 38.4693 116.399 38.8612 116.399 39.3427V43.0828C116.399 43.5643 116.013 43.9563 115.539 43.9563H113.431C112.957 43.9507 112.57 43.5588 112.57 43.0772ZM116.399 36.3529C116.399 36.8344 116.786 37.2263 117.26 37.2263C118.651 37.2263 119.351 36.2913 119.351 34.4212C119.351 32.6687 118.656 31.7897 117.26 31.7897C116.786 31.7897 116.399 32.1816 116.399 32.6631V36.3529Z" fill="white"/>
    <path d="M126.077 40.6809C127.213 40.6809 127.776 41.2576 127.776 42.4054C127.776 43.5531 127.208 44.1298 126.077 44.1298C124.94 44.1298 124.377 43.5531 124.377 42.4054C124.377 41.2576 124.946 40.6809 126.077 40.6809Z" fill="white"/>
    <path d="M139.627 31.3082L137.1 34.5444C136.984 34.69 136.968 34.8915 137.056 35.0539L141.415 43.2676C141.58 43.5756 141.36 43.9507 141.012 43.9507H137.79C137.619 43.9507 137.464 43.8555 137.387 43.7043L134.733 38.6708C134.584 38.3853 134.198 38.3405 133.989 38.5813C133.911 38.6653 133.873 38.7772 133.873 38.8892V43.486C133.873 43.7435 133.669 43.9507 133.415 43.9507H130.502C130.248 43.9507 130.044 43.7435 130.044 43.486V31.0226C130.044 30.7651 130.248 30.5579 130.502 30.5579H133.415C133.669 30.5579 133.873 30.7651 133.873 31.0226V35.1659C133.873 35.6082 134.424 35.7986 134.689 35.4514L138.276 30.7427C138.364 30.6307 138.496 30.5635 138.64 30.5635H139.269C139.649 30.5579 139.865 31.0058 139.627 31.3082Z" fill="white"/>
    <path d="M31.8349 31.9981C31.1231 35.4359 28.8776 38.1514 25.9755 39.5624C25.5065 38.1234 24.8334 36.7629 23.9893 35.5255C27.5148 34.7864 30.5549 32.3453 32.0335 28.9187C32.1107 29.9209 32.05 30.9567 31.8349 31.9981Z" fill="#4D8C00"/>
    <path d="M27.7852 15.6603C27.7465 16.5338 27.6141 17.3848 27.3879 18.2023C27.3603 18.3142 27.3272 18.4262 27.2941 18.5326C26.9134 19.7756 26.3341 20.9458 25.5727 22.0208C22.8361 25.912 17.8319 28.5716 12.0498 28.9075C15.9174 27.3958 18.974 24.7307 20.5189 21.4217C21.1644 20.0443 21.5451 18.5494 21.6113 16.9817C21.6113 16.9593 21.6113 16.9313 21.6113 16.9089C21.6279 16.5394 21.6223 16.1754 21.6003 15.8115C21.5175 14.3782 21.1975 12.9616 20.5906 11.6906C19.4871 9.37267 18.6926 8.01772 15.8678 6.32683C17.4623 4.11523 20.1492 2.56992 20.2871 2.56992C24.3975 4.76471 26.7976 8.90796 27.5755 12.9616C27.7576 13.8463 27.8293 14.7477 27.7852 15.6603Z" fill="#4D8C00"/>
    <path d="M37.9701 34.0866C36.7508 39.1425 33.4459 43.1177 29.2086 45.3125C31.2942 43.1737 32.85 40.4526 33.6059 37.3228C34.8252 32.2837 33.7218 27.2166 30.9852 23.2918C31.6473 22.0712 32.1604 20.7442 32.5024 19.3277C32.6735 18.6222 32.7949 17.9167 32.8721 17.2169C37.3467 21.3265 39.5094 27.7261 37.9701 34.0866Z" fill="#4D8C00"/>
    <path d="M5.13109 25.3466C5.13109 25.3746 5.13109 25.4082 5.13109 25.4361C5.13109 25.9736 5.14765 26.5112 5.17524 27.0431C5.26351 28.6276 5.48972 30.1785 5.83731 31.679C5.99732 32.3845 6.19042 33.0788 6.4056 33.7562C6.78629 34.9712 7.25526 36.147 7.79044 37.2836C7.89527 37.5075 8.00561 37.7315 8.12148 37.9555C10.1408 41.9195 13.0981 45.3181 16.6843 47.8545C16.1381 47.7201 15.6029 47.5577 15.0843 47.3673C13.4512 46.6899 11.9008 45.8332 10.4719 44.8254L10.4663 44.8198C9.15873 43.9016 7.94492 42.8546 6.84146 41.7012C6.53249 41.3764 6.23456 41.0461 5.94214 40.7046C4.82213 39.4 3.84005 37.9723 3.01245 36.4493C1.85382 34.3217 0.998633 31.9981 0.496558 29.5402C0.171037 27.9277 0 26.2648 0 24.5571C0 23.3869 0.082759 22.2335 0.237244 21.1025C0.397246 19.9548 0.63449 18.835 0.937942 17.7432C3.10073 10.095 8.81666 3.97527 16.1547 1.32696C18.0913 0.632684 20.1437 0.173568 22.2734 0C20.6954 0.621486 19.1892 1.38855 17.7768 2.28998C10.4443 6.94273 5.48421 15.0836 5.14765 24.4227C5.13662 24.7307 5.13109 25.0386 5.13109 25.3466Z" fill="#64B500"/>
    <path d="M25.8982 46.7347C25.8982 46.7739 25.8982 46.8131 25.8982 46.8523C25.8816 49.8757 25.1313 52.7144 23.8402 55.1779C22.4388 55.4299 21.0043 55.5643 19.5367 55.5643C18.2898 55.5643 17.0595 55.4691 15.8622 55.2843C16.4139 54.5788 16.9105 53.823 17.3519 53.0279C18.2843 51.3426 18.9519 49.4726 19.2995 47.4793C19.3657 47.0986 19.4209 46.7123 19.465 46.3204C19.5367 45.6541 19.5753 44.9766 19.5753 44.2879C19.5753 43.3641 19.5091 42.4571 19.3767 41.5724C18.7146 37.0988 16.447 33.2075 13.2304 30.5984C12.8718 30.3073 12.5022 30.0329 12.1215 29.7754C12.778 29.8706 13.418 30.0049 14.0415 30.1841C14.516 30.3185 14.9794 30.4697 15.4318 30.6488C19.0015 32.043 21.9754 34.7753 23.8292 38.2858C24.5354 39.624 25.0816 41.0741 25.4347 42.6026C25.6389 43.4929 25.7823 44.4055 25.8485 45.3461C25.8816 45.794 25.8982 46.2588 25.8982 46.7347Z" fill="#4D8C00"/>
  </g>
  <defs>
    <clipPath id="clip0_303_378">
      <rect width="142" height="56" fill="white"/>
    </clipPath>
  </defs>
</svg>