<svg xmlns="http://www.w3.org/2000/svg" width="179" height="70" viewBox="0 0 179 70" fill="none">
  <g clip-path="url(#clip0_322_1644)">
    <path d="M61.4478 31.0097V15.9344C61.4478 15.4725 61.8164 15.1016 62.2754 15.1016H68.5974C70.4544 15.1016 71.9427 15.4935 73.0555 16.2843C74.1683 17.0752 74.7247 18.132 74.7247 19.4548C74.7247 20.9385 74.0848 22.0513 72.7982 22.7722C72.2557 23.0801 72.2348 23.85 72.7495 24.1929C73.0972 24.4239 73.3546 24.6688 73.5215 24.9208C73.8831 25.4667 74.1266 26.5305 74.2587 28.1122C74.3491 29.218 74.4952 30.1068 74.6969 30.7717C74.8568 31.3036 74.4534 31.8425 73.904 31.8425H70.5448C70.1831 31.8425 69.8562 31.6045 69.7519 31.2546C69.5572 30.5897 69.4598 29.8199 69.4598 28.938L69.432 27.9442L69.4042 26.6914C69.4042 24.7598 68.6322 23.794 67.0882 23.794C66.6292 23.794 66.2606 24.1649 66.2606 24.6268V31.0027C66.2606 31.4646 65.8919 31.8355 65.4329 31.8355H62.2615C61.8164 31.8425 61.4478 31.4716 61.4478 31.0097ZM66.2745 21.5754C66.2745 22.0373 66.6431 22.4082 67.1021 22.4082H67.2482C69.0773 22.4082 69.9884 21.4494 69.9884 19.5248C69.9884 17.6001 69.0773 16.6413 67.2482 16.6413H67.1021C66.6431 16.6413 66.2745 17.0122 66.2745 17.4741V21.5754Z" fill="#64B500"/>
    <path d="M84.9554 15.7666L89.0797 30.6879C89.2396 31.2688 88.8084 31.8427 88.2103 31.8427H85.2405C84.8302 31.8427 84.4755 31.5697 84.3642 31.1708L83.7383 28.8822C83.634 28.4833 83.2723 28.2103 82.862 28.2103H79.2176C78.8142 28.2103 78.4595 28.4763 78.3482 28.8612L77.6666 31.1848C77.5554 31.5697 77.2007 31.8357 76.7973 31.8357C76.1922 31.8357 75.761 31.2478 75.9279 30.6669L80.3165 15.7456C80.4277 15.3607 80.7824 15.0947 81.1858 15.0947H84.0652C84.4894 15.1017 84.8441 15.3747 84.9554 15.7666ZM80.233 26.5306H81.937C82.5281 26.5306 82.9663 25.9637 82.8133 25.3828L81.9926 22.2894C81.7561 21.3936 80.5042 21.3866 80.2469 22.2684L79.3636 25.3618C79.1967 25.9497 79.6279 26.5306 80.233 26.5306Z" fill="#7A5B4B"/>
    <path d="M95.5478 17.5301V29.4139C95.5478 30.7577 94.4698 31.8425 93.1344 31.8425C91.7991 31.8425 90.7211 30.7577 90.7211 29.4139V17.5301C90.7211 16.1864 91.7991 15.1016 93.1344 15.1016C94.4628 15.1016 95.5478 16.1934 95.5478 17.5301Z" fill="#7A5B4B"/>
    <path d="M103.261 15.9414V29.323C103.261 29.7849 103.636 30.1628 104.095 30.1628H109.263C109.722 30.1628 110.097 30.5407 110.097 31.0027C110.097 31.4646 109.722 31.8425 109.263 31.8425H99.2685C98.8095 31.8425 98.434 31.4646 98.434 31.0027V15.9414C98.434 15.4795 98.8095 15.1016 99.2685 15.1016H102.426C102.885 15.1016 103.261 15.4795 103.261 15.9414Z" fill="#7A5B4B"/>
    <path d="M123.145 25.3898L123.701 25.5368C124 25.6138 124.216 25.8798 124.23 26.1947C124.237 26.4047 124.244 26.6006 124.244 26.7756C124.244 28.3993 123.66 29.7011 122.491 30.6739C121.323 31.6467 119.751 32.1366 117.79 32.1366C112.859 32.1366 110.39 29.3441 110.39 23.7591C110.39 21.1066 111.106 18.965 112.546 17.3133C113.985 15.6686 115.856 14.8428 118.165 14.8428C121.594 14.8428 123.388 16.4245 123.555 19.5809C123.569 19.8679 123.402 20.1408 123.145 20.2598L122.54 20.5397C122.067 20.7567 121.538 20.4068 121.538 19.8888V19.8819C121.538 17.4113 120.558 16.1795 118.589 16.1795C116.51 16.1795 115.467 18.797 115.467 24.0391C115.467 28.5463 116.628 30.7929 118.951 30.7929C119.911 30.7929 120.711 30.4079 121.344 29.6381C121.983 28.8682 122.303 27.9094 122.303 26.7546C122.303 26.5866 122.289 26.3837 122.269 26.1457C122.22 25.6488 122.672 25.2639 123.145 25.3898Z" fill="#7A5B4B"/>
    <path d="M132.875 14.8076C137.715 14.8076 140.136 17.6911 140.136 23.465C140.136 29.239 137.667 32.1224 132.736 32.1224C127.805 32.1224 125.336 29.169 125.336 23.2691C125.343 17.6281 127.853 14.8076 132.875 14.8076ZM132.736 16.1444C131.825 16.1444 131.212 16.6483 130.893 17.6561C130.573 18.6639 130.413 20.6026 130.413 23.465C130.413 26.3275 130.573 28.2592 130.893 29.274C131.212 30.2818 131.831 30.7857 132.736 30.7857C133.647 30.7857 134.259 30.2818 134.579 29.274C134.899 28.2662 135.059 26.3275 135.059 23.465C135.059 20.6096 134.899 18.6779 134.579 17.6631C134.266 16.6553 133.647 16.1444 132.736 16.1444Z" fill="#7A5B4B"/>
    <path d="M154.428 15.9204V31.0306C154.428 31.4786 154.066 31.8495 153.614 31.8495H151.173C150.902 31.8495 150.645 31.7095 150.498 31.4856L145.282 23.521C144.837 22.8491 143.794 23.1641 143.794 23.9689V31.0306C143.794 31.4786 143.432 31.8495 142.98 31.8495C142.535 31.8495 142.167 31.4856 142.167 31.0306V15.9204C142.167 15.4725 142.528 15.1016 142.98 15.1016H144.795C145.067 15.1016 145.317 15.2345 145.47 15.4655L151.326 24.3049C151.771 24.9768 152.808 24.6618 152.808 23.85V15.9204C152.808 15.4725 153.169 15.1016 153.621 15.1016C154.066 15.1016 154.428 15.4655 154.428 15.9204Z" fill="#7A5B4B"/>
    <path d="M66.2745 48.5904V52.9576C66.2745 54.0494 65.3912 54.9382 64.3062 54.9382H63.416C62.331 54.9382 61.4478 54.0494 61.4478 52.9576V40.1779C61.4478 39.0861 62.331 38.1973 63.416 38.1973H64.3062C65.3912 38.1973 66.2745 39.0861 66.2745 40.1779V42.9494C66.2745 44.0412 67.1577 44.93 68.2427 44.93C69.3277 44.93 70.2109 44.0412 70.2109 42.9494V40.1779C70.2109 39.0861 71.0942 38.1973 72.1792 38.1973H73.0694C74.1544 38.1973 75.0377 39.0861 75.0377 40.1779V52.9576C75.0377 54.0494 74.1544 54.9382 73.0694 54.9382H72.1792C71.0942 54.9382 70.2109 54.0494 70.2109 52.9576V48.5904C70.2109 47.4986 69.3277 46.6097 68.2427 46.6097C67.1577 46.6097 66.2745 47.4986 66.2745 48.5904Z" fill="#64B500"/>
    <path d="M84.6981 37.9033C89.5387 37.9033 91.959 40.7868 91.959 46.5607C91.959 52.3347 89.49 55.2181 84.559 55.2181C79.6279 55.2181 77.1589 52.2647 77.1589 46.3648C77.1659 40.7238 79.6766 37.9033 84.6981 37.9033ZM84.5659 39.2401C83.6548 39.2401 83.0428 39.744 82.7229 40.7518C82.4029 41.7596 82.243 43.6983 82.243 46.5607C82.243 49.4232 82.4029 51.3549 82.7229 52.3697C83.0428 53.3775 83.6618 53.8814 84.5659 53.8814C85.477 53.8814 86.089 53.3775 86.409 52.3697C86.7289 51.3619 86.8889 49.4232 86.8889 46.5607C86.8889 43.7053 86.7289 41.7736 86.409 40.7588C86.089 39.744 85.477 39.2401 84.5659 39.2401Z" fill="#7A5B4B"/>
    <path d="M105.771 39.0371C105.771 39.499 105.396 39.877 104.937 39.877H102.523C102.064 39.877 101.689 40.2549 101.689 40.7168V54.0984C101.689 54.5603 101.313 54.9382 100.854 54.9382H97.4047C96.9456 54.9382 96.5701 54.5603 96.5701 54.0984V40.7168C96.5701 40.2549 96.1945 39.877 95.7355 39.877H93.3013C92.8422 39.877 92.4667 39.499 92.4667 39.0371C92.4667 38.5752 92.8422 38.1973 93.3013 38.1973H104.937C105.396 38.1973 105.771 38.5752 105.771 39.0371Z" fill="#7A5B4B"/>
    <path d="M117.136 43.0194L116.851 43.0754C116.301 43.1803 115.8 42.7464 115.8 42.1795V42.1725C115.8 40.2269 114.625 39.2541 112.281 39.2541C110.431 39.2541 109.499 39.926 109.499 41.2627C109.499 42.2705 110.536 43.1314 112.608 43.8522C116.607 45.231 118.603 47.2746 118.603 49.9831C118.603 51.5718 118.04 52.8456 116.92 53.8044C115.8 54.7632 114.305 55.2461 112.448 55.2461C108.331 55.2461 106.272 53.6364 106.272 50.424C106.272 50.333 106.272 50.2421 106.279 50.1371C106.3 49.7382 106.585 49.4022 106.975 49.3112L107.357 49.2272C107.955 49.0943 108.491 49.5912 108.428 50.2001C108.407 50.41 108.393 50.606 108.393 50.788C108.393 52.8666 109.576 53.9024 111.94 53.9024C113.832 53.9024 114.778 53.1535 114.778 51.6558C114.778 50.543 113.644 49.5702 111.377 48.7233C108.101 47.5126 106.467 45.5809 106.467 42.9214C106.467 41.4167 107.016 40.2059 108.108 39.2821C109.2 38.3652 110.64 37.9033 112.413 37.9033C115.745 37.9033 117.56 39.2751 117.852 42.0256C117.901 42.5085 117.595 42.9354 117.136 43.0194Z" fill="#7A5B4B"/>
    <path d="M138.314 43.0194L138.028 43.0754C137.479 43.1803 136.978 42.7464 136.978 42.1795V42.1725C136.978 40.2269 135.803 39.2541 133.459 39.2541C131.609 39.2541 130.677 39.926 130.677 41.2627C130.677 42.2705 131.713 43.1314 133.786 43.8522C137.785 45.231 139.781 47.2746 139.781 49.9831C139.781 51.5718 139.218 52.8456 138.098 53.8044C136.978 54.7632 135.483 55.2461 133.626 55.2461C129.509 55.2461 127.45 53.6364 127.45 50.424C127.45 50.333 127.45 50.2421 127.457 50.1371C127.478 49.7382 127.763 49.4022 128.152 49.3112L128.535 49.2272C129.133 49.0943 129.669 49.5912 129.606 50.2001C129.585 50.41 129.571 50.606 129.571 50.788C129.571 52.8666 130.754 53.9024 133.118 53.9024C135.01 53.9024 135.956 53.1535 135.956 51.6558C135.956 50.543 134.822 49.5702 132.555 48.7233C129.279 47.5126 127.645 45.5809 127.645 42.9214C127.645 41.4167 128.194 40.2059 129.286 39.2821C130.378 38.3652 131.818 37.9033 133.591 37.9033C136.923 37.9033 138.738 39.2751 139.03 42.0256C139.086 42.5085 138.773 42.9354 138.314 43.0194Z" fill="#7A5B4B"/>
    <path d="M141.902 53.8464V39.2891C141.902 38.6872 142.389 38.1973 142.987 38.1973H149.08C153.148 38.1973 155.186 39.835 155.186 43.1174C155.186 46.4278 152.926 48.0865 148.398 48.0865H147.814C147.216 48.0865 146.729 48.5764 146.729 49.1783V53.8534C146.729 54.4553 146.242 54.9452 145.644 54.9452H142.987C142.389 54.9382 141.902 54.4483 141.902 53.8464ZM146.729 45.4409C146.729 46.0428 147.216 46.5327 147.814 46.5327C149.567 46.5327 150.45 45.364 150.45 43.0264C150.45 40.8358 149.573 39.737 147.814 39.737C147.216 39.737 146.729 40.2269 146.729 40.8288V45.4409Z" fill="#7A5B4B"/>
    <path d="M158.928 50.8506C160.361 50.8506 161.07 51.5714 161.07 53.0062C161.07 54.4409 160.354 55.1618 158.928 55.1618C157.495 55.1618 156.786 54.4409 156.786 53.0062C156.786 51.5714 157.502 50.8506 158.928 50.8506Z" fill="#7A5B4B"/>
    <path d="M176.009 39.1351L172.824 43.1804C172.678 43.3623 172.657 43.6143 172.768 43.8172L178.263 54.0844C178.471 54.4693 178.193 54.9382 177.755 54.9382H173.693C173.478 54.9382 173.283 54.8192 173.185 54.6303L169.84 48.3384C169.652 47.9815 169.166 47.9255 168.901 48.2264C168.804 48.3314 168.755 48.4714 168.755 48.6114V54.3573C168.755 54.6793 168.498 54.9382 168.178 54.9382H164.506C164.186 54.9382 163.928 54.6793 163.928 54.3573V38.7782C163.928 38.4562 164.186 38.1973 164.506 38.1973H168.178C168.498 38.1973 168.755 38.4562 168.755 38.7782V43.9572C168.755 44.5101 169.451 44.7481 169.785 44.3141L174.305 38.4282C174.416 38.2883 174.583 38.2043 174.764 38.2043H175.557C176.037 38.1973 176.308 38.7572 176.009 39.1351Z" fill="#7A5B4B"/>
    <path d="M40.1299 39.9977C39.2327 44.2949 36.402 47.6893 32.7438 49.453C32.1526 47.6543 31.3041 45.9536 30.24 44.4069C34.6842 43.4831 38.5163 40.4317 40.3803 36.1484C40.4776 37.4012 40.4011 38.696 40.1299 39.9977Z" fill="#4D8C00"/>
    <path d="M35.0249 19.5749C34.9762 20.6667 34.8093 21.7305 34.5241 22.7523C34.4893 22.8923 34.4476 23.0323 34.4059 23.1653C33.926 24.719 33.1957 26.1817 32.236 27.5255C28.7863 32.3896 22.4782 35.714 15.1895 36.1339C20.0648 34.2442 23.9179 30.9128 25.8652 26.7766C26.679 25.0549 27.1589 23.1863 27.2423 21.2266C27.2423 21.1986 27.2423 21.1636 27.2423 21.1356C27.2632 20.6737 27.2562 20.2188 27.2284 19.7639C27.1241 17.9722 26.7207 16.2015 25.9557 14.6128C24.5647 11.7154 23.5632 10.0217 20.0023 7.90806C22.0122 5.14356 25.3993 3.21191 25.5731 3.21191C30.7546 5.95541 33.7799 11.1345 34.7606 16.2015C34.9901 17.3073 35.0805 18.4341 35.0249 19.5749Z" fill="#4D8C00"/>
    <path d="M47.8637 42.6086C46.3267 48.9285 42.1607 53.8976 36.8193 56.6411C39.4483 53.9676 41.4096 50.5662 42.3624 46.6539C43.8994 40.355 42.5085 34.0212 39.0588 29.1151C39.8934 27.5894 40.5402 25.9307 40.9714 24.16C41.187 23.2782 41.34 22.3963 41.4374 21.5215C47.0778 26.6585 49.8042 34.6581 47.8637 42.6086Z" fill="#4D8C00"/>
    <path d="M6.46807 31.6832C6.46807 31.7182 6.46807 31.7602 6.46807 31.7952C6.46807 32.4671 6.48894 33.1389 6.52371 33.8038C6.63499 35.7845 6.92014 37.7231 7.3583 39.5988C7.56 40.4806 7.80342 41.3484 8.07466 42.1953C8.55455 43.714 9.14571 45.1837 9.82034 46.6045C9.95248 46.8844 10.0916 47.1644 10.2376 47.4443C12.7831 52.3994 16.511 56.6476 21.0317 59.8181C20.3431 59.6501 19.6685 59.4471 19.0147 59.2092C16.9561 58.3623 15.0018 57.2915 13.2004 56.0317L13.1935 56.0248C11.5452 54.877 10.0151 53.5682 8.62409 52.1265C8.23462 51.7205 7.85905 51.3076 7.49044 50.8807C6.0786 49.25 4.84062 47.4653 3.79738 45.5617C2.33685 42.9022 1.25884 39.9977 0.625942 36.9252C0.215602 34.9096 0 32.831 0 30.6964C0 29.2337 0.104323 27.7919 0.299061 26.3782C0.500753 24.9434 0.799815 23.5437 1.18234 22.1789C3.90866 12.6187 11.114 4.96909 20.364 1.6587C22.8052 0.790855 25.3924 0.21696 28.077 0C26.0879 0.776858 24.1892 1.73568 22.4087 2.86248C13.1657 8.67841 6.91319 18.8546 6.48894 30.5284C6.47503 30.9133 6.46807 31.2983 6.46807 31.6832Z" fill="#64B500"/>
    <path d="M32.6463 58.4179C32.6463 58.4669 32.6463 58.5159 32.6463 58.5648C32.6255 62.3442 31.6796 65.8925 30.0522 68.9719C28.2856 69.2869 26.4773 69.4549 24.6273 69.4549C23.0555 69.4549 21.5046 69.3359 19.9953 69.1049C20.6908 68.2231 21.3168 67.2783 21.8732 66.2844C23.0485 64.1778 23.8901 61.8403 24.3283 59.3487C24.4117 58.8728 24.4813 58.3899 24.5369 57.9C24.6273 57.0671 24.676 56.2203 24.676 55.3594C24.676 54.2046 24.5925 53.0709 24.4256 51.9651C23.591 46.3731 20.7326 41.509 16.6778 38.2476C16.2258 37.8836 15.7598 37.5407 15.2799 37.2188C16.1075 37.3377 16.9143 37.5057 17.7002 37.7297C18.2983 37.8976 18.8826 38.0866 19.4529 38.3106C23.9527 40.0532 27.7014 43.4686 30.0382 47.8568C30.9285 49.5295 31.617 51.3422 32.0621 53.2528C32.3195 54.3656 32.5003 55.5064 32.5837 56.6822C32.6255 57.2421 32.6463 57.823 32.6463 58.4179Z" fill="#4D8C00"/>
  </g>
  <defs>
    <clipPath id="clip0_322_1644">
      <rect width="179" height="70" fill="white"/>
    </clipPath>
  </defs>
</svg>