<svg xmlns="http://www.w3.org/2000/svg" width="20" height="20" viewBox="0 0 20 20" fill="none">
<path d="M19.1666 7.33665V15.7955C19.1666 16.2642 19.0063 16.6655 18.6857 16.9993C18.3652 17.3331 17.9798 17.5 17.5297 17.5H2.47016C2.02001 17.5 1.63465 17.3331 1.31409 16.9993C0.993532 16.6655 0.833252 16.2642 0.833252 15.7955V7.33665C1.13335 7.68466 1.47778 7.99361 1.86655 8.26349C4.33555 10.0107 6.03042 11.2358 6.95118 11.9389C7.33995 12.2372 7.65539 12.4698 7.89752 12.6367C8.13964 12.8036 8.46191 12.9741 8.86432 13.1481C9.26672 13.3221 9.64184 13.4091 9.98969 13.4091H10.0101C10.358 13.4091 10.7331 13.3221 11.1355 13.1481C11.5379 12.9741 11.8602 12.8036 12.1023 12.6367C12.3444 12.4698 12.6599 12.2372 13.0487 11.9389C14.2081 11.0653 15.9064 9.8402 18.1435 8.26349C18.5323 7.98651 18.8733 7.67756 19.1666 7.33665ZM19.1666 4.20455C19.1666 4.76562 18.9995 5.30185 18.6653 5.81321C18.3311 6.32457 17.915 6.76136 17.4171 7.12358C14.8527 8.97727 13.2567 10.1314 12.6292 10.5859C12.561 10.6357 12.4161 10.744 12.1944 10.9109C11.9727 11.0778 11.7886 11.2127 11.6419 11.3157C11.4953 11.4187 11.318 11.5341 11.1099 11.6619C10.9019 11.7898 10.7058 11.8857 10.5217 11.9496C10.3375 12.0135 10.167 12.0455 10.0101 12.0455H9.98969C9.83282 12.0455 9.66231 12.0135 9.47815 11.9496C9.294 11.8857 9.09792 11.7898 8.88989 11.6619C8.68187 11.5341 8.50454 11.4187 8.3579 11.3157C8.21126 11.2127 8.02711 11.0778 7.80544 10.9109C7.58378 10.744 7.43884 10.6357 7.37064 10.5859C6.74998 10.1314 5.8565 9.48331 4.69021 8.64169C3.52391 7.80007 2.82482 7.29403 2.59292 7.12358C2.17006 6.82528 1.77106 6.41513 1.39594 5.89311C1.02081 5.37109 0.833252 4.88636 0.833252 4.43892C0.833252 3.88494 0.974776 3.4233 1.25782 3.05398C1.54087 2.68466 1.94498 2.5 2.47016 2.5H17.5297C17.973 2.5 18.3567 2.6669 18.6806 3.00071C19.0046 3.33452 19.1666 3.7358 19.1666 4.20455Z" fill="white"/>
</svg>