<svg xmlns="http://www.w3.org/2000/svg" width="20" height="20" viewBox="0 0 20 20" fill="none">
<path d="M12.964 12.4217L12.5849 12.7992C12.5849 12.7992 11.6824 13.6958 9.21988 11.2475C6.75738 8.79915 7.65988 7.90249 7.65988 7.90249L7.89821 7.66415C8.48738 7.07915 8.54321 6.13915 8.02905 5.45249L6.97905 4.04999C6.34238 3.19999 5.11321 3.08749 4.38405 3.81249L3.07571 5.11249C2.71488 5.47249 2.47321 5.93749 2.50238 6.45415C2.57738 7.77665 3.17571 10.6208 6.51238 13.9392C10.0515 17.4575 13.3724 17.5975 14.7299 17.4708C15.1599 17.4308 15.5332 17.2125 15.834 16.9125L17.0174 15.7358C17.8174 14.9417 17.5924 13.5792 16.569 13.0233L14.9774 12.1575C14.3057 11.7933 13.489 11.9 12.964 12.4217Z" fill="white"/>
</svg>