<svg width="421" height="421" viewBox="0 0 421 421" fill="none" xmlns="http://www.w3.org/2000/svg">
<g clip-path="url(#clip0_1_922)">
<path d="M170.867 59.2031H12.334C5.52138 59.2031 0 64.7245 0 71.5371V230.071C0 236.883 5.52138 242.405 12.334 242.405H79.2651V348.971C79.2651 355.781 84.7865 361.305 91.5991 361.305H131.235C136.544 361.305 141.256 357.907 142.933 352.871L182.565 233.97C182.986 232.714 183.201 231.397 183.201 230.071V71.5371C183.201 64.7245 177.68 59.2031 170.867 59.2031Z" fill="#1C1D1F"/>
<path d="M408.666 59.2031H250.133C243.32 59.2031 237.799 64.7245 237.799 71.5371V230.071C237.799 236.883 243.32 242.405 250.133 242.405H317.067V348.971C317.067 355.781 322.588 361.305 329.401 361.305H369.033C374.343 361.305 379.055 357.907 380.735 352.871L420.367 233.97C420.785 232.714 421 231.397 421 230.071V71.5371C421 64.7245 415.479 59.2031 408.666 59.2031Z" fill="#1C1D1F"/>
</g>
<defs>
<clipPath id="clip0_1_922">
<rect width="421" height="421" fill="white"/>
</clipPath>
</defs>
</svg>
