<svg width="70" height="70" viewBox="0 0 70 70" fill="none" xmlns="http://www.w3.org/2000/svg">
<path d="M42.1004 65.6271C42.0961 65.6271 42.0917 65.6271 42.0851 65.6271C35.7326 65.6249 29.8111 63.1924 25.412 58.7846C20.8598 54.2324 18.4339 48.103 18.5826 41.5274C18.7314 34.9649 21.4286 28.7371 26.1776 23.988C27.6236 22.5421 29.2248 21.2733 30.9398 20.2124C31.4495 19.893 32.1254 20.0527 32.4448 20.569C32.762 21.083 32.6023 21.7568 32.0883 22.074C30.5176 23.0452 29.0498 24.209 27.7242 25.5346C23.3754 29.8833 20.9058 35.5796 20.7701 41.5755C20.6345 47.5496 22.8329 53.1124 26.9608 57.238C30.9464 61.2346 36.3189 63.4352 42.0873 63.4396H42.1004C48.2867 63.4396 54.1689 60.9655 58.662 56.4724C63.1595 51.9749 65.6336 46.0905 65.6314 39.8977C65.627 34.1293 63.4242 28.7568 59.4298 24.7711C59.0011 24.3446 59.0011 23.6511 59.4276 23.2246C59.8542 22.7958 60.5476 22.798 60.9742 23.2224C65.3842 27.6215 67.8145 33.543 67.8189 39.8977C67.8211 46.6746 65.1217 53.1124 60.2086 58.0211C55.302 62.9277 48.8708 65.6271 42.1004 65.6271Z" fill="white"/>
<path d="M56.9798 22.4284C56.7676 22.4284 56.5554 22.3672 56.3673 22.2403C50.4829 18.2437 42.8486 17.465 35.9382 20.1512C35.3782 20.3766 34.7417 20.0922 34.5229 19.5278C34.3042 18.9656 34.582 18.3312 35.1464 18.1125C42.7261 15.1616 51.1173 16.03 57.5967 20.4291C58.0976 20.7681 58.2267 21.4484 57.8876 21.9472C57.6754 22.26 57.3298 22.4284 56.9798 22.4284Z" fill="white"/>
<path d="M55.9082 27.5473C55.6697 27.5473 55.4378 27.4751 55.2519 27.3198C54.7925 26.9282 54.6657 26.3201 55.0572 25.8607L55.1972 25.6967C55.591 25.2351 56.2822 25.1826 56.7394 25.572C57.1988 25.9635 57.2557 26.6548 56.8641 27.1142C56.63 27.3876 56.2625 27.5473 55.9082 27.5473Z" fill="white"/>
<path d="M30.706 56.9647C30.4676 56.9647 30.2357 56.8925 30.0498 56.7372C29.5904 56.3456 29.4635 55.7375 29.8551 55.2781L29.9951 55.1141C30.3866 54.6525 31.0801 54.5978 31.5373 54.9894C31.9966 55.3809 32.0535 56.0722 31.6619 56.5316C31.4279 56.805 31.0604 56.9647 30.706 56.9647Z" fill="white"/>
<path d="M61.3285 35.687C60.8669 35.687 60.4031 35.4377 60.2413 35.0024C60.0313 34.4358 60.2216 33.843 60.7881 33.6352L60.9872 33.5608C61.5494 33.353 62.1816 33.6417 62.3916 34.2083C62.5994 34.7749 62.3106 35.4027 61.7441 35.6127C61.615 35.663 61.4728 35.687 61.3285 35.687Z" fill="white"/>
<path d="M25.5101 48.8252C25.0485 48.8252 24.5848 48.5759 24.4229 48.1405C24.2129 47.574 24.4032 46.9812 24.9698 46.7734L25.1688 46.699C25.7288 46.4912 26.3632 46.7799 26.5732 47.3465C26.781 47.913 26.4923 48.5409 25.9257 48.7509C25.7945 48.8034 25.6523 48.8252 25.5101 48.8252Z" fill="white"/>
<path d="M61.8882 45.6379C61.8248 45.6379 61.757 45.6335 61.6914 45.6204C61.0985 45.5132 60.5998 44.9248 60.707 44.3298C60.8142 43.7348 61.2823 43.3323 61.8751 43.4285L62.0807 43.4657C62.6735 43.5729 63.0695 44.1438 62.9623 44.7388C62.8682 45.2682 62.4089 45.6379 61.8882 45.6379Z" fill="white"/>
<path d="M25.0357 38.9747C24.9723 38.9747 24.9044 38.9703 24.8388 38.9572C24.246 38.85 23.7473 38.2615 23.8544 37.6665C23.9616 37.0715 24.4276 36.6647 25.0226 36.7653L25.2282 36.8025C25.821 36.9097 26.2169 37.4806 26.1098 38.0756C26.0157 38.6028 25.5563 38.9747 25.0357 38.9747Z" fill="white"/>
<path d="M57.45 54.7027C57.194 54.7027 56.9359 54.613 56.7281 54.4315C56.2731 54.0334 56.1506 53.2721 56.5487 52.8193C56.9468 52.3643 57.5572 52.2505 58.0122 52.6487L58.1697 52.7865C58.6247 53.1846 58.6706 53.8759 58.2703 54.3309C58.0559 54.5759 57.7518 54.7027 57.45 54.7027Z" fill="white"/>
<path d="M29.4256 30.0104C29.1696 30.0104 28.9115 29.9207 28.7037 29.7391C28.2487 29.341 28.1262 28.5797 28.5243 28.1269C28.9224 27.6719 29.5327 27.5582 29.9877 27.9563L30.1452 28.0941C30.6002 28.4922 30.6462 29.1835 30.2459 29.6385C30.0315 29.8857 29.7274 30.0104 29.4256 30.0104Z" fill="white"/>
<path d="M49.2359 60.4471C48.7766 60.4471 48.3478 60.1562 48.1969 59.6946C48.0088 59.1215 48.2888 58.4018 48.8619 58.2137C49.435 58.0277 50.0213 58.2355 50.2094 58.8109L50.275 59.0121C50.4631 59.5852 50.1503 60.2043 49.5772 60.3924C49.4634 60.4296 49.3497 60.4471 49.2359 60.4471Z" fill="white"/>
<path d="M37.5484 24.3294C37.0891 24.3294 36.6603 24.0384 36.5094 23.5769C36.3213 23.0038 36.6013 22.2841 37.1744 22.0959C37.7519 21.91 38.3338 22.12 38.5219 22.6931L38.5875 22.8944C38.7756 23.4675 38.4628 24.0866 37.8897 24.2747C37.7759 24.3119 37.66 24.3294 37.5484 24.3294Z" fill="white"/>
<path d="M39.4487 61.3353C39.3765 61.3353 39.3043 61.3287 39.23 61.3134C38.6371 61.1931 38.2543 60.6178 38.3746 60.025C38.495 59.4322 39.1009 58.9487 39.685 59.0647C40.2778 59.185 40.6825 59.6553 40.5621 60.2481L40.5184 60.4603C40.4156 60.9765 39.9584 61.3353 39.4487 61.3353Z" fill="white"/>
<path d="M47.227 23.4523C47.1548 23.4523 47.0827 23.4457 47.0083 23.4304C46.4155 23.3101 46.0327 22.7348 46.153 22.142C46.2733 21.5491 46.8727 21.0635 47.4633 21.1816C48.0561 21.302 48.4608 21.7723 48.3405 22.3651L48.2967 22.5773C48.1939 23.0957 47.7367 23.4523 47.227 23.4523Z" fill="white"/>
<path d="M43.8218 40.0203C43.7496 40.0203 43.6774 40.0138 43.603 39.9985C43.0102 39.8781 42.6274 39.3006 42.7477 38.71L45.0905 27.1272C45.2108 26.5344 45.7883 26.1472 46.3789 26.2719C46.9718 26.3922 47.3546 26.9697 47.2343 27.5603L44.8914 39.1431C44.7864 39.6616 44.3314 40.0203 43.8218 40.0203Z" fill="white"/>
<path d="M43.1349 44.2902C42.938 44.2902 42.7367 44.2727 42.5377 44.2334C40.8074 43.8615 39.7158 42.1246 40.0767 40.3593C40.4289 38.6224 42.1658 37.4368 43.8655 37.8021C44.6552 37.9574 45.3552 38.4299 45.8211 39.1299C46.3089 39.8605 46.4861 40.7793 46.3067 41.6499C45.9983 43.179 44.6617 44.2902 43.1349 44.2902ZM43.3667 39.9437C42.717 39.9437 42.3189 40.3046 42.2205 40.7946C42.1002 41.3852 42.4458 41.9759 42.973 42.0896L43.1349 42.1027C43.627 42.1027 44.0602 41.7287 44.1652 41.2146C44.2286 40.9084 44.1674 40.5912 44.0033 40.3418C43.8633 40.1318 43.6599 39.9896 43.4324 39.9459C43.4083 39.9437 43.3886 39.9437 43.3667 39.9437Z" fill="white"/>
<path d="M9.84375 48.125H3.28125C2.6775 48.125 2.1875 47.635 2.1875 47.0312C2.1875 46.4275 2.6775 45.9375 3.28125 45.9375H9.84375C10.4475 45.9375 10.9375 46.4275 10.9375 47.0312C10.9375 47.635 10.4475 48.125 9.84375 48.125Z" fill="white"/>
<path d="M18.5938 56.875H7.65625C7.0525 56.875 6.5625 56.385 6.5625 55.7812C6.5625 55.1775 7.0525 54.6875 7.65625 54.6875H18.5938C19.1975 54.6875 19.6875 55.1775 19.6875 55.7812C19.6875 56.385 19.1975 56.875 18.5938 56.875Z" fill="white"/>
<path d="M9.84375 30.625H3.28125C2.6775 30.625 2.1875 30.135 2.1875 29.5312C2.1875 28.9275 2.6775 28.4375 3.28125 28.4375H9.84375C10.4475 28.4375 10.9375 28.9275 10.9375 29.5312C10.9375 30.135 10.4475 30.625 9.84375 30.625Z" fill="white"/>
<path d="M22.9688 21.875H7.65625C7.0525 21.875 6.5625 21.385 6.5625 20.7812C6.5625 20.1775 7.0525 19.6875 7.65625 19.6875H22.9688C23.5725 19.6875 24.0625 20.1775 24.0625 20.7812C24.0625 21.385 23.5725 21.875 22.9688 21.875Z" fill="white"/>
<path d="M38.2812 13.125H16.4062C15.8025 13.125 15.3125 12.635 15.3125 12.0312C15.3125 11.4275 15.8025 10.9375 16.4062 10.9375H38.2812C38.885 10.9375 39.375 11.4275 39.375 12.0312C39.375 12.635 38.885 13.125 38.2812 13.125Z" fill="white"/>
<path d="M41.5625 65.625H7.65625C7.0525 65.625 6.5625 65.135 6.5625 64.5312C6.5625 63.9275 7.0525 63.4375 7.65625 63.4375H41.5625C42.1662 63.4375 42.6562 63.9275 42.6562 64.5312C42.6562 65.135 42.1662 65.625 41.5625 65.625Z" fill="white"/>
<path d="M3.50219 65.625H3.28125C2.6775 65.625 2.1875 65.135 2.1875 64.5312C2.1875 63.9275 2.6775 63.4375 3.28125 63.4375H3.50219C4.10594 63.4375 4.59594 63.9275 4.59594 64.5312C4.59594 65.135 4.10594 65.625 3.50219 65.625Z" fill="white"/>
<path d="M50.0955 19.25C50.0277 19.25 49.9599 19.2434 49.892 19.2303C49.2992 19.1187 48.9077 18.5456 49.0214 17.9528L49.8964 13.3066L48.1027 12.9084L47.9845 13.5581C47.8774 14.1509 47.3108 14.5469 46.7136 14.4397C46.1186 14.3325 45.7249 13.7616 45.832 13.1687L46.1514 11.3991C46.2039 11.1059 46.3745 10.8478 46.6217 10.6816C46.8711 10.5197 47.1774 10.4628 47.4639 10.5241L51.4036 11.3991C51.9811 11.5281 52.3508 12.0903 52.2414 12.67L51.1695 18.3575C51.0711 18.8825 50.6117 19.25 50.0955 19.25Z" fill="white"/>
<path d="M60.2001 25.0906C59.9266 25.0906 59.6554 24.99 59.4432 24.7865C59.0079 24.3687 58.9904 23.6775 59.4082 23.24L61.9544 20.5778C62.3701 20.1403 63.0635 20.125 63.501 20.5428C63.9363 20.9606 63.9538 21.6518 63.536 22.0893L60.9898 24.7515C60.7754 24.9768 60.4866 25.0906 60.2001 25.0906Z" fill="white"/>
<path d="M35.4203 20.0594C35.0003 20.0594 34.6 19.8166 34.4185 19.4075L33.13 16.4937C32.8872 15.9425 33.1366 15.295 33.6878 15.05C34.2457 14.8094 34.8866 15.0566 35.1316 15.6078L36.42 18.5237C36.6628 19.075 36.4135 19.7225 35.8622 19.9675C35.7178 20.0287 35.5669 20.0594 35.4203 20.0594Z" fill="white"/>
</svg>
