<svg width="70" height="70" viewBox="0 0 70 70" fill="none" xmlns="http://www.w3.org/2000/svg">
<g clip-path="url(#clip0_335_796)">
<path d="M18.9587 55.4167H13.1253C12.3203 55.4167 11.667 54.7633 11.667 53.9583C11.667 53.1533 12.3203 52.5 13.1253 52.5H18.9587C19.7637 52.5 20.417 53.1533 20.417 53.9583C20.417 54.7633 19.7637 55.4167 18.9587 55.4167Z" fill="white"/>
<path d="M66.3538 55.4167H62.708C61.903 55.4167 61.2496 54.7634 61.2496 53.9584C61.2496 53.1534 61.903 52.5001 62.708 52.5001H65.1434L67.1092 42.0234C67.083 36.6626 62.5038 32.0834 56.8746 32.0834H47.2992L42.6588 52.5001H51.0413C51.8463 52.5001 52.4996 53.1534 52.4996 53.9584C52.4996 54.7634 51.8463 55.4167 51.0413 55.4167H40.833C40.3896 55.4167 39.9696 55.2155 39.6926 54.8684C39.4155 54.5243 39.3105 54.0692 39.4096 53.6376L44.7121 30.3042C44.8638 29.6363 45.453 29.1667 46.1355 29.1667H56.8746C64.1109 29.1667 69.9996 35.0555 69.9996 42.2917L67.7859 54.2267C67.6576 54.918 67.0567 55.4167 66.3538 55.4167Z" fill="white"/>
<path d="M56.8747 61.2501C52.8555 61.2501 49.583 57.9805 49.583 53.9584C49.583 49.9363 52.8555 46.6667 56.8747 46.6667C60.8938 46.6667 64.1663 49.9363 64.1663 53.9584C64.1663 57.9805 60.8938 61.2501 56.8747 61.2501ZM56.8747 49.5834C54.4626 49.5834 52.4997 51.5463 52.4997 53.9584C52.4997 56.3705 54.4626 58.3334 56.8747 58.3334C59.2868 58.3334 61.2497 56.3705 61.2497 53.9584C61.2497 51.5463 59.2868 49.5834 56.8747 49.5834Z" fill="white"/>
<path d="M24.7917 61.2501C20.7725 61.2501 17.5 57.9805 17.5 53.9584C17.5 49.9363 20.7725 46.6667 24.7917 46.6667C28.8108 46.6667 32.0833 49.9363 32.0833 53.9584C32.0833 57.9805 28.8108 61.2501 24.7917 61.2501ZM24.7917 49.5834C22.3796 49.5834 20.4167 51.5463 20.4167 53.9584C20.4167 56.3705 22.3796 58.3334 24.7917 58.3334C27.2038 58.3334 29.1667 56.3705 29.1667 53.9584C29.1667 51.5463 27.2038 49.5834 24.7917 49.5834Z" fill="white"/>
<path d="M18.958 29.1667H7.29134C6.48634 29.1667 5.83301 28.5133 5.83301 27.7083C5.83301 26.9033 6.48634 26.25 7.29134 26.25H18.958C19.763 26.25 20.4163 26.9033 20.4163 27.7083C20.4163 28.5133 19.763 29.1667 18.958 29.1667Z" fill="white"/>
<path d="M18.9587 37.9167H4.37533C3.57033 37.9167 2.91699 37.2633 2.91699 36.4583C2.91699 35.6533 3.57033 35 4.37533 35H18.9587C19.7637 35 20.417 35.6533 20.417 36.4583C20.417 37.2633 19.7637 37.9167 18.9587 37.9167Z" fill="white"/>
<path d="M18.9583 46.6667H1.45833C0.653333 46.6667 0 46.0133 0 45.2083C0 44.4033 0.653333 43.75 1.45833 43.75H18.9583C19.7633 43.75 20.4167 44.4033 20.4167 45.2083C20.4167 46.0133 19.7633 46.6667 18.9583 46.6667Z" fill="white"/>
<path d="M40.8337 55.4167H30.6253C29.8203 55.4167 29.167 54.7634 29.167 53.9584C29.167 53.1534 29.8203 52.5001 30.6253 52.5001H39.6699L46.2966 23.3334H13.1253C12.3203 23.3334 11.667 22.6801 11.667 21.8751C11.667 21.0701 12.3203 20.4167 13.1253 20.4167H48.1253C48.5687 20.4167 48.9887 20.618 49.2657 20.9651C49.5428 21.3092 49.6478 21.7642 49.5487 22.1959L42.257 54.2793C42.1053 54.9472 41.5132 55.4167 40.8337 55.4167Z" fill="white"/>
</g>
<defs>
<clipPath id="clip0_335_796">
<rect width="70" height="70" fill="white"/>
</clipPath>
</defs>
</svg>
