<svg width="65" height="65" viewBox="0 0 65 65" fill="none" xmlns="http://www.w3.org/2000/svg">
<path d="M62.8333 40.0834V14.0834C62.8333 12.8885 61.8616 11.9167 60.6667 11.9167H4.33333C3.13842 11.9167 2.16667 12.8885 2.16667 14.0834V40.0834C0.97175 40.0834 0 41.0552 0 42.2501V44.4167C0 45.4557 0.735583 46.3245 1.71275 46.5336C1.32167 47.1847 1.08333 47.9365 1.08333 48.7501C1.08333 51.1399 3.02683 53.0834 5.41667 53.0834C7.8065 53.0834 9.75 51.1399 9.75 48.7501C9.75 47.9571 9.52033 47.2237 9.14767 46.5834H12.519C12.1463 47.2237 11.9167 47.9571 11.9167 48.7501C11.9167 51.1399 13.8602 53.0834 16.25 53.0834C18.6398 53.0834 20.5833 51.1399 20.5833 48.7501C20.5833 47.9571 20.3537 47.2237 19.981 46.5834H22.1098L24.4703 50.8767C24.8517 51.57 25.5786 52.0001 26.3694 52.0001H38.6306C39.4203 52.0001 40.1483 51.57 40.5286 50.8767L42.8903 46.5834H45.019C44.6463 47.2237 44.4167 47.9571 44.4167 48.7501C44.4167 51.1399 46.3602 53.0834 48.75 53.0834C51.1398 53.0834 53.0833 51.1399 53.0833 48.7501C53.0833 47.9571 52.8537 47.2237 52.481 46.5834H55.8523C55.4797 47.2237 55.25 47.9571 55.25 48.7501C55.25 51.1399 57.1935 53.0834 59.5833 53.0834C61.9732 53.0834 63.9167 51.1399 63.9167 48.7501C63.9167 47.9376 63.6783 47.1847 63.2873 46.5336C64.2644 46.3245 65 45.4557 65 44.4167V42.2501C65 41.0552 64.0283 40.0834 62.8333 40.0834ZM4.33333 14.0834H60.6667V40.0834H4.33333V14.0834ZM2.16667 42.2501H62.8333L62.8355 44.4167H2.16667V42.2501ZM7.58333 48.7501C7.58333 49.945 6.61158 50.9167 5.41667 50.9167C4.22175 50.9167 3.25 49.945 3.25 48.7501C3.25 47.5552 4.22175 46.5834 5.41667 46.5834C6.61158 46.5834 7.58333 47.5552 7.58333 48.7501ZM18.4167 48.7501C18.4167 49.945 17.4449 50.9167 16.25 50.9167C15.0551 50.9167 14.0833 49.945 14.0833 48.7501C14.0833 47.5552 15.0551 46.5834 16.25 46.5834C17.4449 46.5834 18.4167 47.5552 18.4167 48.7501ZM38.6306 49.8334H26.3694L24.5819 46.5834H40.4181L38.6306 49.8334ZM50.9167 48.7501C50.9167 49.945 49.9449 50.9167 48.75 50.9167C47.5551 50.9167 46.5833 49.945 46.5833 48.7501C46.5833 47.5552 47.5551 46.5834 48.75 46.5834C49.9449 46.5834 50.9167 47.5552 50.9167 48.7501ZM59.5833 50.9167C58.3884 50.9167 57.4167 49.945 57.4167 48.7501C57.4167 47.5552 58.3884 46.5834 59.5833 46.5834C60.7783 46.5834 61.75 47.5552 61.75 48.7501C61.75 49.945 60.7783 50.9167 59.5833 50.9167Z" fill="white"/>
<path d="M9.75033 16.25C9.15124 16.25 8.66699 16.7342 8.66699 17.3333V36.8333C8.66699 37.4324 9.15124 37.9167 9.75033 37.9167C10.3494 37.9167 10.8337 37.4324 10.8337 36.8333V17.3333C10.8337 16.7342 10.3494 16.25 9.75033 16.25Z" fill="white"/>
<path d="M16.2503 16.25C15.6512 16.25 15.167 16.7342 15.167 17.3333V36.8333C15.167 37.4324 15.6512 37.9167 16.2503 37.9167C16.8494 37.9167 17.3337 37.4324 17.3337 36.8333V17.3333C17.3337 16.7342 16.8494 16.25 16.2503 16.25Z" fill="white"/>
<path d="M22.7503 16.25C22.1512 16.25 21.667 16.7342 21.667 17.3333V36.8333C21.667 37.4324 22.1512 37.9167 22.7503 37.9167C23.3494 37.9167 23.8337 37.4324 23.8337 36.8333V17.3333C23.8337 16.7342 23.3494 16.25 22.7503 16.25Z" fill="white"/>
<path d="M29.2503 16.25C28.6512 16.25 28.167 16.7342 28.167 17.3333V36.8333C28.167 37.4324 28.6512 37.9167 29.2503 37.9167C29.8494 37.9167 30.3337 37.4324 30.3337 36.8333V17.3333C30.3337 16.7342 29.8494 16.25 29.2503 16.25Z" fill="white"/>
<path d="M35.7503 16.25C35.1512 16.25 34.667 16.7342 34.667 17.3333V36.8333C34.667 37.4324 35.1512 37.9167 35.7503 37.9167C36.3494 37.9167 36.8337 37.4324 36.8337 36.8333V17.3333C36.8337 16.7342 36.3494 16.25 35.7503 16.25Z" fill="white"/>
<path d="M42.2503 16.25C41.6512 16.25 41.167 16.7342 41.167 17.3333V36.8333C41.167 37.4324 41.6512 37.9167 42.2503 37.9167C42.8494 37.9167 43.3337 37.4324 43.3337 36.8333V17.3333C43.3337 16.7342 42.8494 16.25 42.2503 16.25Z" fill="white"/>
<path d="M48.7503 16.25C48.1512 16.25 47.667 16.7342 47.667 17.3333V36.8333C47.667 37.4324 48.1512 37.9167 48.7503 37.9167C49.3494 37.9167 49.8337 37.4324 49.8337 36.8333V17.3333C49.8337 16.7342 49.3494 16.25 48.7503 16.25Z" fill="white"/>
<path d="M55.2503 16.25C54.6512 16.25 54.167 16.7342 54.167 17.3333V36.8333C54.167 37.4324 54.6512 37.9167 55.2503 37.9167C55.8494 37.9167 56.3337 37.4324 56.3337 36.8333V17.3333C56.3337 16.7342 55.8494 16.25 55.2503 16.25Z" fill="white"/>
</svg>
