<svg width="46" height="62" viewBox="0 0 46 62" fill="none" xmlns="http://www.w3.org/2000/svg">
<g clip-path="url(#clip0_335_1603)">
<path d="M25.0248 21.3719C21.9592 21.3719 19.4561 18.8781 19.4561 15.8031V5.3125C19.4561 4.79687 19.8779 4.375 20.3936 4.375C20.9092 4.375 21.3311 4.79687 21.3311 5.3125V15.8125C21.3311 17.8469 22.9904 19.5062 25.0248 19.5062C27.0592 19.5062 28.7186 17.8469 28.7186 15.8125V4.3C28.7186 2.99687 27.6498 1.9375 26.3467 1.9375C25.0436 1.9375 23.9842 2.99687 23.9842 4.3V14.8094C23.9842 15.3156 24.3967 15.7375 24.9123 15.7375C25.4186 15.7375 25.8404 15.325 25.8404 14.8094V5.60312C25.8404 5.0875 26.2623 4.66562 26.7779 4.66562C27.2936 4.66562 27.7154 5.0875 27.7154 5.60312V14.8094C27.7154 16.3562 26.4592 17.6125 24.9123 17.6125C23.3654 17.6125 22.1092 16.3562 22.1092 14.8094V4.3C22.1092 1.96562 24.0123 0.0625 26.3467 0.0625C28.6811 0.0625 30.5842 1.96562 30.5842 4.3V15.8125C30.5936 18.8781 28.0904 21.3719 25.0248 21.3719Z" fill="white"/>
<path d="M44.3281 57.5312H6.07812C5.5625 57.5312 5.14062 57.1093 5.14062 56.5937V8.38745C5.14062 7.87183 5.5625 7.44995 6.07812 7.44995H20.4031C20.9187 7.44995 21.3406 7.87183 21.3406 8.38745C21.3406 8.90308 20.9187 9.32495 20.4031 9.32495H7.01562V55.6562H43.3906V15.4375L37.2875 9.33433H29.6562C29.1406 9.33433 28.7187 8.91245 28.7187 8.39683C28.7187 7.8812 29.1406 7.45933 29.6562 7.45933H37.6719C37.925 7.45933 38.1594 7.56245 38.3375 7.7312L44.9937 14.3875C45.1719 14.5656 45.2656 14.8 45.2656 15.0531V56.5937C45.2656 57.1187 44.8438 57.5312 44.3281 57.5312Z" fill="white"/>
<path d="M44.3281 15.9812H37.6719C37.1562 15.9812 36.7344 15.5593 36.7344 15.0437V8.38745C36.7344 7.87183 37.1562 7.44995 37.6719 7.44995C38.1875 7.44995 38.6094 7.87183 38.6094 8.38745V14.1062H44.3281C44.8437 14.1062 45.2656 14.5281 45.2656 15.0437C45.2656 15.5687 44.8437 15.9812 44.3281 15.9812Z" fill="white"/>
<path d="M39.9219 61.9375H1.67188C1.15625 61.9375 0.734375 61.5156 0.734375 61V12.7937C0.734375 12.2781 1.15625 11.8562 1.67188 11.8562H6.07812C6.59375 11.8562 7.01562 12.2781 7.01562 12.7937C7.01562 13.3093 6.59375 13.7312 6.07812 13.7312H2.60938V60.0625H38.9844V56.5937C38.9844 56.0781 39.4062 55.6562 39.9219 55.6562C40.4375 55.6562 40.8594 56.0781 40.8594 56.5937V61C40.8594 61.5156 40.4375 61.9375 39.9219 61.9375Z" fill="white"/>
<path d="M33.9598 27.4844H10.4941C9.97852 27.4844 9.55664 27.0625 9.55664 26.5469C9.55664 26.0312 9.97852 25.6094 10.4941 25.6094H33.9691C34.4848 25.6094 34.9066 26.0312 34.9066 26.5469C34.8973 27.0719 34.4848 27.4844 33.9598 27.4844Z" fill="white"/>
<path d="M33.0316 33.4282H10.4941C9.97852 33.4282 9.55664 33.0063 9.55664 32.4907C9.55664 31.9751 9.97852 31.5532 10.4941 31.5532H33.0316C33.5473 31.5532 33.9691 31.9751 33.9691 32.4907C33.9691 33.0063 33.5566 33.4282 33.0316 33.4282Z" fill="white"/>
<path d="M37.6723 39.3718H10.4941C9.97852 39.3718 9.55664 38.95 9.55664 38.4343C9.55664 37.9187 9.97852 37.4968 10.4941 37.4968H37.6723C38.1879 37.4968 38.6098 37.9187 38.6098 38.4343C38.6098 38.9593 38.1879 39.3718 37.6723 39.3718Z" fill="white"/>
<path d="M30.2566 45.3157H10.4941C9.97852 45.3157 9.55664 44.8938 9.55664 44.3782C9.55664 43.8625 9.97852 43.4407 10.4941 43.4407H30.2566C30.7723 43.4407 31.1941 43.8625 31.1941 44.3782C31.1941 44.8938 30.7723 45.3157 30.2566 45.3157Z" fill="white"/>
<path d="M32.1035 51.2593H10.4941C9.97852 51.2593 9.55664 50.8374 9.55664 50.3218C9.55664 49.8062 9.97852 49.3843 10.4941 49.3843H32.1129C32.6285 49.3843 33.0504 49.8062 33.0504 50.3218C33.041 50.8468 32.6285 51.2593 32.1035 51.2593Z" fill="white"/>
</g>
<defs>
<clipPath id="clip0_335_1603">
<rect width="46" height="62" fill="white"/>
</clipPath>
</defs>
</svg>
